<?xml version="1.0" standalone="no"?>
<!DOCTYPE svg PUBLIC "-//W3C//DTD SVG 1.1//EN" "http://www.w3.org/Graphics/SVG/1.1/DTD/svg11.dtd" >
<svg xmlns="http://www.w3.org/2000/svg" xmlns:xlink="http://www.w3.org/1999/xlink" version="1.1">
<metadata></metadata>
<defs>
<font id="pribambasregular" horiz-adv-x="854" >
<font-face units-per-em="2048" ascent="1536" descent="-512" />
<missing-glyph horiz-adv-x="448" />
<glyph horiz-adv-x="0" />
<glyph unicode="&#xd;" horiz-adv-x="1024" />
<glyph horiz-adv-x="0" />
<glyph horiz-adv-x="0" />
<glyph unicode=" "  horiz-adv-x="448" />
<glyph unicode="&#x09;" horiz-adv-x="448" />
<glyph unicode="&#xa0;" horiz-adv-x="448" />
<glyph unicode="!" horiz-adv-x="403" d="M6 158v31.5t6 16.5t18.5 7t35.5 2q29 0 56.5 -1t55.5 3q23 2 29 -4t8 -29q0 -29 2 -55.5t2 -58.5q0 -61 -39 -62q-16 0 -58 -3t-75 1q-16 2 -26.5 11.5t-12.5 27.5q-2 23 -1 53.5t-1 59.5zM6 356v81v154v193.5v199.5t1 171t1 109q0 41 43 41q33 2 74 1t55 -1 q12 0 20.5 -8.5t8.5 -30.5v-66.5t1 -145.5t1 -191.5v-203v-179.5v-122q-2 -29 -12 -39q-6 -6 -11 -6h-157q-14 0 -19.5 15.5t-5.5 27.5z" />
<glyph unicode="&#x22;" horiz-adv-x="808" />
<glyph unicode="#" horiz-adv-x="1173" d="M-27 240q2 16 6.5 36.5t6.5 38t4 29.5t2 14q2 37 11 46.5t46 13.5h51.5t51.5 -2q33 -2 41 4t18 37q2 8 4 15t6 17q0 2 -1 6.5t-11 4.5q-37 0 -73 2t-73 4q-6 0 -16 6t-6 25q4 23 5 42t3 39q2 16 3 31t5 31q2 6 8.5 13t12.5 7q18 0 49 -1t59.5 -1t51 -1t26.5 -1 q25 0 33 25q8 23 20.5 60.5t24.5 74.5t22.5 63.5t10.5 30.5q8 35 45 23q23 -6 57.5 -13.5t61.5 -17.5q16 -4 18 -14t2 -15q-6 -27 -16.5 -57.5t-20.5 -58t-17 -49t-7 -27.5q-2 -12 3 -16.5t9 -4.5q31 -2 60.5 -2h60.5q14 0 18 13q18 43 28.5 77.5t33.5 94.5q12 29 18 45 t12.5 23t13.5 6t23 -7q29 -10 61.5 -18t63.5 -19q25 -6 19 -28q-6 -20 -14.5 -47t-16.5 -52.5t-13.5 -43t-5.5 -19.5t-3 -10t10 -8h24.5h42h46h36.5q33 0 33 -29q0 -12 -5 -30.5t-11.5 -37t-11.5 -34t-7 -23.5q-4 -18 -13 -29.5t-28 -11.5h-172q-20 2 -27 -18q-4 -14 -8 -31 t-8 -27q-6 -16 8 -18q4 0 23.5 -1t48.5 -1t60.5 -1t60.5 -1q20 0 21 -8.5t-1 -12.5q-4 -20 -8 -47t-8 -51.5t-9 -43t-8 -22.5q-10 -12 -24 -13t-31 1q-16 0 -41.5 1t-48 1h-40h-19.5q-43 2 -51.5 -5t-18.5 -50q-10 -37 -21.5 -73t-23.5 -77q-2 -8 -9 -18t-30 0 q-14 4 -35.5 12t-44.5 17q-25 8 -55 18q-23 6 -21 20.5t17 55.5q6 20 11 39.5t11 42.5q2 4 3 12t-15 8q-14 0 -27.5 1t-25.5 3q-25 2 -38 2t-21.5 -5t-13.5 -17.5t-11 -34.5q-6 -23 -17.5 -56.5t-22.5 -66.5t-19.5 -57.5t-10.5 -28.5t-8 -11t-25 -3q-10 2 -27.5 5t-39 9 t-43 15.5t-35.5 19.5q-8 4 -7 22.5t5 28.5q4 14 10 36.5t13.5 45.5t13.5 43t10 33q4 12 -12 12h-127q-14 0 -16.5 8t-2.5 17zM413 424q-1 -6 9 -6t48 -1t67 -3q10 0 16 10q6 16 11 32.5t9 32.5v9.5t-12 5.5t-50 1t-67 3q-4 0 -8 -3t-4 -7q-10 -29 -16 -64q-2 -4 -3 -10z" />
<glyph unicode="$" horiz-adv-x="811" d="M2 51v118v216t1 265.5t1 264v215v115.5q-2 29 8.5 40t40.5 13q10 2 51 2h87.5h85h47.5q70 0 132 -31.5t109 -85t75 -121t28 -140.5q0 -72 -25 -136.5t-68 -111.5t-102 -75t-129 -28h-143v-88q0 -12 6 -15t16 -3h174q74 0 166 2q8 0 17 -2q16 -4 16 -23v-116 q0 -10 -7 -17.5t-16 -11.5q-10 -6 -22 -10q-88 -2 -158 -2h-166q-10 0 -15 -9.5t-5 -19.5q0 -12 1 -46t1 -70v-65.5v-37.5q0 -20 -12.5 -26.5t-26.5 -6.5q-31 -4 -71 -4t-68 2q-16 0 -22.5 15.5t-6.5 33.5zM203 770q47 -4 90 0q14 0 43 6t58.5 24.5t52 51.5t22.5 86 q0 51 -25.5 84t-58.5 50.5t-64.5 24.5t-41.5 7h-76v-334z" />
<glyph unicode="%" horiz-adv-x="1087" d="M0 131l39 52t83 109.5t111.5 146.5t124 164t123 162t106.5 140.5t75 98.5l28 38q18 20 28.5 31.5t20 12.5t20.5 -5t29 -20q23 -18 48.5 -36.5t50.5 -35.5q16 -10 17 -21.5t-9 -25.5q-14 -20 -51 -69.5t-88 -118t-112.5 -149.5t-124 -163t-122 -158.5t-106.5 -138 t-78 -101.5t-37 -46q-18 -20 -45 -8q-8 4 -31.5 22.5t-46 41t-40 44t-13.5 33.5zM18 1034q0 23 25 23h29.5h45h44.5h31q39 0 38 -39v-133q-2 -37 -17 -47.5t-50 -10.5h-37t-49 4q-45 0 -50 14.5t-5 41.5q-2 37 -2.5 73.5t-2.5 73.5zM616 137v74q0 23 23 20h29.5h45h45h29.5 q18 0 28.5 -7t10.5 -29q2 -66 0 -134q0 -37 -15 -47t-52 -10h-37t-49 2q-43 0 -48 15.5t-8 41.5q-2 37 -2 74z" />
<glyph unicode="&#x26;" horiz-adv-x="983" d="M-51 367q0 41 12 90t39 96q25 43 60.5 76t72.5 67q4 4 9.5 7.5t9.5 7.5q-8 12 -11 20q-41 53 -56 107.5t-11 109.5q2 20 9 70.5t37 103t87 91t160 38.5q100 0 156.5 -36.5t83 -86t31.5 -99.5t5 -77t-8 -58.5t-21.5 -63t-33 -61.5t-43.5 -50q-18 -18 -41 -34.5t-47 -37.5 q37 -45 76.5 -99t78.5 -102q6 10 16.5 33t21.5 47.5t19.5 46t12.5 27.5q8 20 35 18q45 -10 80.5 -24t70.5 -33q16 -8 14 -24.5t-6 -26.5q-43 -117 -123 -215q-4 -4 -6 -8t-6 -8q35 -41 71 -86.5t48 -61.5t8 -24.5t-8 -12.5q-35 -23 -65.5 -44t-65.5 -44q-16 -14 -31 6 q-16 29 -35.5 56.5t-38.5 56.5q-14 20 -32 4t-43 -39.5t-58.5 -46.5t-79 -38t-104.5 -15q-84 0 -149.5 35.5t-109.5 91t-67.5 122t-23.5 128.5zM186 373q0 -33 11.5 -59.5t30 -46t40.5 -31t45 -11.5q27 0 51.5 9.5t44 21.5t31 23.5l15.5 15.5q12 14 6 22l-160 203 q-14 16 -31 0q-33 -31 -57.5 -63.5t-26.5 -83.5zM268 968q-2 -40 12.5 -82t45.5 -69q63 23 97 65t36 83t-25.5 70.5t-87.5 29.5q-37 0 -56.5 -28.5t-21.5 -68.5z" />
<glyph unicode="'" horiz-adv-x="319" d="M-92 1042q0 12 20.5 20.5t32.5 18.5q18 16 26.5 45t9.5 60t0 57.5t-1 38.5q0 45 20 45q41 -2 84 -2t84 -2q14 0 19 -14q4 -31 5 -54.5t1 -46t-2 -48t-4 -60.5q-27 -76 -105 -76q-39 0 -77.5 -1t-77.5 1q-8 2 -21.5 3t-13.5 15z" />
<glyph unicode="(" horiz-adv-x="575" d="M-10 678q0 106 29.5 207.5t71.5 187.5t90 152.5t85 101.5q6 4 16.5 8t18.5 0q41 -12 88 -28.5t72 -26.5q12 -4 13 -14.5t-3 -21.5t-11 -20.5t-9 -13.5q-25 -23 -64 -69.5t-78 -114.5t-66.5 -157t-27.5 -195q0 -104 21.5 -204.5t47 -179.5t48 -129t24.5 -55q16 -45 11 -62 t-43 -32q-29 -10 -54.5 -22.5t-54.5 -20.5q-12 -4 -29.5 -1t-23.5 12q-14 16 -43 74.5t-57.5 148.5t-50 211t-21.5 264z" />
<glyph unicode=")" horiz-adv-x="641" d="M11.5 1224.5q-7.5 12.5 15.5 35.5t55.5 45t69.5 51q6 6 23.5 7t25.5 -9q27 -35 70.5 -105.5t86.5 -165t75 -206t30 -226.5q-2 -129 -29.5 -232.5t-62.5 -182t-71 -136t-56 -94.5q-18 -31 -42 -47t-40 -12t-39 15t-62 28q-37 16 -47 32.5t6 47.5q14 25 50 90t75 148 t69 171t30 156t-16.5 149.5t-45 161.5t-69.5 149.5t-90 112.5q-4 4 -11.5 16.5z" />
<glyph unicode="*" horiz-adv-x="489" d="M0 1167q2 27 7 37t30 8h117l-111 111q-6 6 -10 17.5t4 19.5q4 4 1 1t-6 -5t-3 -1t12 11q18 16 29.5 20.5t29.5 -14.5q6 -8 38 -38.5t75 -76.5q0 31 1 73t1 54q2 4 8 11.5t10 7.5q18 2 28.5 2h19h18.5h29q25 0 24 -29v-110q37 35 62.5 60.5l31.5 31.5q14 12 21.5 19 t11.5 9.5t9.5 -2t15.5 -14.5t11 -10t9 -10q10 -8 3 -15.5t-11 -11.5l-106 -106h122q6 0 15.5 -1.5t9.5 -13.5v-100q0 -27 -5 -28t-44 -3h-107q45 -41 76 -71.5t39 -38.5q4 -4 11.5 -12.5t-3.5 -16.5q-8 -10 -9 -10t-11 -11q-10 -10 -15.5 -14t-9.5 -3t-11 9t-22 21 l-31.5 31.5t-64.5 62.5v-107q2 -29 -7 -30.5t-38 -3.5h-19h-8.5t-8.5 1t-19 1q-16 0 -25.5 4t-9.5 20v123q-45 -45 -77 -76.5t-38 -40.5q-18 -18 -29.5 -14t-29.5 20q-12 10 -12 11.5t3 -0.5t6 -5t-1 1q-8 8 -4 19t10 17l111 111h-123q-8 0 -18.5 5t-10.5 16q0 12 -1 28.5 t-1 48.5z" />
<glyph unicode="+" horiz-adv-x="724" d="M0 634q2 42 0 79q0 25 29 24h108q8 0 15 4q12 8 12 23q-2 31 -1 58.5t1 62.5q0 6 1 15t13 9h158q27 0 28 -5t3 -44q2 -29 0 -52.5t0 -51.5q0 -12 4 -15.5t20 -3.5h96q29 0 31 -8t4 -37v-60.5t-2 -58.5q0 -16 -4 -25t-20 -9h-117q-4 0 -7 -3.5t-3 -15.5v-141 q0 -8 -5.5 -19.5t-17.5 -11.5h-21.5h-35h-40h-36.5q-27 0 -37 5t-8 32v137q0 4 -2 9.5t-12 5.5h-22.5h-40t-42 1t-29.5 1q-4 0 -11 6t-7 10q-4 37 -2 79z" />
<glyph unicode="," horiz-adv-x="278" d="M-143 -125q0 14 20.5 22.5t32.5 18.5q18 16 28.5 51t15.5 72t6 69.5t1 45.5q0 43 21 43q41 0 82.5 -1t82.5 -1q14 -4 19 -15q8 -61 8 -122.5t-22 -123.5q-27 -78 -105 -77q-39 2 -78 0t-78 2q-8 0 -21 1t-13 15z" />
<glyph unicode="-" horiz-adv-x="468" d="M-78 592v28.5t1 44t1 44v30.5q0 27 25 27h303q16 0 29.5 -10.5t9.5 -38.5q0 -8 -1 -25.5t-2 -36t-2 -36t-3 -23.5q-6 -33 -47 -33q-12 0 -56.5 1t-93.5 1h-89h-46q-10 0 -19.5 6.5t-9.5 20.5z" />
<glyph unicode="." horiz-adv-x="319" d="M-37 117v73q0 20 23 21h151q37 0 39 -37v-66.5t-2 -66.5q0 -37 -15.5 -47t-49.5 -10h-39t-50 2q-43 0 -48 14t-7 43q-2 37 -2 74z" />
<glyph unicode="/" horiz-adv-x="638" d="M14 57q2 10 16.5 66.5t37 140.5t49 189.5t55.5 213t55.5 210t48 181.5t34.5 128l12 49q6 27 11 40t12 19t20.5 4t35.5 -6l62 -12t59 -10q20 -4 25.5 -13.5t1.5 -25.5q-4 -25 -19.5 -88.5t-38 -150.5t-50 -191.5t-56.5 -211t-55.5 -206.5t-48 -180t-36 -131.5t-16.5 -59.5 q-6 -27 -36 -26q-10 0 -39 6t-60 17t-54.5 23.5t-25.5 24.5z" />
<glyph unicode="0" horiz-adv-x="770" d="M4 309v76v121.5t1 144.5t1 145.5v125v79.5q0 39 11.5 95.5t43 110t90 91t154.5 41.5q94 2 149.5 -37.5t84 -94t38 -109t13.5 -78.5q2 -16 3 -70.5t1 -127v-154.5t-1 -154t-2 -124t-1 -64q0 -74 -20.5 -136.5t-57.5 -108.5t-89 -71.5t-116 -25.5q-63 0 -118.5 20.5 t-96.5 60t-64.5 101t-23.5 143.5zM205 649q0 -90 1 -166.5t3 -101.5q0 -12 2 -42t10 -58.5t27.5 -51t54.5 -22.5t52.5 25.5t24.5 59.5t7 66.5v47.5q2 43 3 123.5t2 164.5t0 155t-3 95q0 14 -2 49t-10 72t-24.5 64.5t-47.5 27.5t-49 -26.5t-28.5 -60.5t-14.5 -65.5t-4 -43.5 q-2 -47 -3 -134.5t-1 -177.5z" />
<glyph unicode="1" horiz-adv-x="659" d="M-27.5 1025q2.5 17 31.5 38q25 18 74 51t101 66.5t96 63.5t61 40q14 10 36.5 15.5t39.5 -5.5q16 -10 42.5 -29.5t26.5 -35.5v-65.5t-1 -134.5t-2 -180t-2 -202.5t-2 -204t-1 -182.5v-138v-71q0 -20 -8 -32.5t-31 -12.5q-29 -2 -55.5 -4t-52.5 -4q-35 0 -49.5 22.5 t-14.5 49.5v70.5t2 147.5t3 190.5t3 199.5t4 174t2 115q0 12 -8 14t-16 -2q-31 -20 -74 -49t-61 -43q-31 -23 -45.5 -26t-36.5 26q-8 10 -25.5 42t-29.5 54q-10 25 -7.5 42z" />
<glyph unicode="2" d="M8 98q2 41 0 79t10 79q16 55 46 112.5t71 96.5q55 53 112.5 97t112.5 97q33 29 53.5 64t18.5 82q-2 53 -1 107.5t1 105.5t-30.5 76.5t-69.5 25.5t-64.5 -23.5t-25.5 -49.5q0 -29 -1 -44.5t-1 -41.5q0 -27 -6.5 -40.5t-49.5 -13.5h-100q-31 0 -37 11.5t-8 31.5v52t8 75 t25.5 83t52.5 77t88 56.5t133 21.5q90 0 146.5 -37t89 -88t45 -104.5t12.5 -86.5v-241q0 -29 -8 -66t-25.5 -73.5t-42 -70.5t-57.5 -56q-31 -23 -61.5 -43.5t-59.5 -42.5q-41 -29 -69.5 -60t-43.5 -78q-4 -8 -5 -17.5t-5 -23.5q14 0 73.5 -1t126 -1t121 -1t58.5 -1 q33 -6 31 -41q-4 -29 -2 -64.5t0 -64.5q-4 -31 -14.5 -41t-39.5 -10h-78t-114.5 -1t-130 -1t-122.5 1t-95 1t-47 2q-4 0 -9.5 7t-7.5 14q-2 16 -3 35.5t-1 37.5z" />
<glyph unicode="3" horiz-adv-x="874" d="M-18 242q-2 10 1 21t9 18q27 29 55.5 54t56.5 52q25 25 39 -8q4 -10 15.5 -35t31 -52.5t48 -48t67.5 -20.5q66 0 118 52.5t52 156.5q0 76 -17.5 126t-44 81t-60.5 44t-66 13q-33 0 -63.5 -1t-63.5 -1q-4 0 -6 19.5t-2 43t2 45t6 27.5q6 6 25.5 32t45 59.5t53 67.5 t50.5 56q2 2 4 6.5t2 8.5t-5 7t-20 3q-14 0 -46.5 -1t-67.5 -2t-63.5 -2t-31.5 -1q-29 2 -39 13t-8 38q2 33 1 66.5t3 66.5q0 4 2.5 8.5t4.5 8.5q29 0 100.5 1t152 1h155.5h110q35 -2 51 -6.5t14 -38.5v-58q4 -23 -8 -35q-47 -59 -95 -117.5t-95 -117.5q-6 -8 -11.5 -16.5 t-15.5 -18.5q8 -2 50 -20.5t90 -58.5t86 -103.5t38 -157.5q0 -123 -24.5 -210t-61.5 -144.5t-81 -90t-85 -49t-72.5 -20.5t-41.5 -4q-76 0 -136.5 23.5t-103.5 59.5t-69.5 79t-34.5 80z" />
<glyph unicode="4" horiz-adv-x="897" d="M-18 472q-7 20 4 42q4 6 39.5 57.5t83 121t98.5 142t86 121.5q16 23 44 64t55.5 83t49 76.5t27.5 45.5q6 10 18 10h15l168 -6q6 -4 14 -10q16 -12 16 -27v-87v-184.5v-238.5v-249t1 -215t1 -136v-22.5t-4 -22.5q-6 -41 -49 -37q-29 4 -56.5 1t-55.5 1q-37 6 -37 53 q-2 72 -3 151t1 152q0 18 -8.5 24.5t-24.5 6.5h-71.5h-112h-105.5h-49q-33 8 -59.5 22.5t-55.5 30.5q-23 10 -30 30zM299 596q0 -6 13.5 -5t19.5 1q63 2 131 0q16 0 23.5 6t7.5 25q0 55 3 123.5t5 123.5q0 4 -1 15.5t-9 11.5q-4 0 -19.5 -21.5t-36 -54.5t-45 -70.5 t-45 -71.5t-34 -57.5t-13.5 -25.5z" />
<glyph unicode="5" horiz-adv-x="811" d="M-18 242q-2 6 2 16t8 14q35 23 67.5 45.5t65.5 44.5q16 10 24.5 4t18.5 -16q16 -29 33.5 -55.5t40.5 -50.5q16 -18 44.5 -29.5t47.5 -11.5q37 0 58.5 31.5t21.5 123.5v65v69.5t-1 61.5t-1 40q0 18 -3 37.5t-12.5 39t-25 37t-41.5 27.5q-37 16 -78 14.5t-75 -11 t-58.5 -19.5t-28.5 -10q-6 0 -14 15t-17.5 34.5t-14.5 37t-5 23.5q0 35 1 98.5t1 128v119t-2 70.5q-6 37 29 41q16 2 55 3t88 1h102.5h98.5t77.5 -1t38.5 -1q29 -4 29 -35q-4 -35 -4 -59.5t-4 -59.5q-4 -49 -62 -51q-39 -2 -76.5 -1t-76.5 3h-48.5t-21.5 -6t-6 -21.5v-43.5 q-4 -59 5 -69.5t59 -2.5q43 6 81.5 -6.5t71.5 -33t57.5 -46t38.5 -45.5q35 -49 48.5 -124t15.5 -154t-3 -150.5t-7 -114.5q-6 -82 -39 -134t-77 -81t-93 -40t-88 -11q-53 0 -114.5 16.5t-115.5 61.5q-41 35 -70.5 76.5t-45.5 95.5z" />
<glyph unicode="6" horiz-adv-x="833" d="M6 643v160q2 70 6 125q4 47 6 91t5 56q2 25 19 68t53 86t95.5 73.5t145.5 30.5q76 0 126 -21.5t81.5 -49t47 -53t21.5 -33.5q20 -27 0 -50q-20 -27 -38.5 -53t-41.5 -53q-12 -14 -28.5 -8t-30.5 26q-6 6 -16.5 23.5t-27.5 36t-40.5 33t-54.5 14.5q-47 0 -70.5 -49 t-33 -110.5t-8.5 -118t5 -70.5q4 6 15.5 23.5t29 37t43 35.5t56.5 20q23 2 67.5 -4t77.5 -26q96 -63 113 -174q8 -63 10 -127t4 -127q4 -68 -6 -133q-6 -41 -16.5 -99.5t-43 -112t-95 -91t-169.5 -37.5q-80 0 -133 28.5t-87 73.5t-51 98.5t-24.5 104.5t-8.5 91t-1 56 q0 25 -1 85.5t-1 123.5zM223 417q0 -38 1 -70t1 -48t6.5 -35.5t20.5 -37t34.5 -29t49.5 -11.5q43 0 63.5 25t29.5 61.5t9 79.5v82v83t-6 83t-23.5 64.5t-52.5 25.5q-43 0 -67.5 -14t-37.5 -34.5t-17.5 -42t-4.5 -36.5q-4 -31 -5 -69.5t-1 -76.5z" />
<glyph unicode="7" horiz-adv-x="858" d="M8 78q2 8 31 78.5t71 171t91 218.5t92 221t74.5 177t40.5 90q12 25 6.5 33t-23.5 8q-10 0 -55 1t-98.5 2t-102.5 2t-67 1q-18 -2 -26.5 1t-12.5 8q-4 4 -4 8q2 33 4 63q2 27 3 54.5t3 50.5q0 8 12 16q6 2 14 4q152 0 273 2q51 0 101 1t90 2t66.5 1h31.5q14 0 30.5 -9 t29.5 -21.5t21.5 -26.5t8.5 -23q0 -4 -20.5 -55t-55.5 -132t-79 -183.5t-90 -210t-92 -212t-83 -189.5t-61.5 -141t-28.5 -69q-10 -25 -37 -22q-35 6 -66.5 10t-66.5 8q-16 4 -24.5 21.5t-0.5 40.5z" />
<glyph unicode="8" horiz-adv-x="843" d="M-9 577.5q-1 38.5 1 53.5q6 51 30.5 93t59.5 79q8 8 15.5 16.5t17.5 18.5q-10 6 -25.5 24.5t-31 46t-27 64.5t-11.5 80q0 39 20.5 86t57.5 87t92.5 66.5t126.5 26.5q72 0 128.5 -22.5t95.5 -58.5t59.5 -79t20.5 -86t-10.5 -80t-24 -65.5t-26.5 -46t-19 -23.5 q8 -10 15 -17t15 -16q25 -23 38.5 -50t23.5 -58q27 -86 24.5 -196.5t-6.5 -221.5q0 -104 -43 -166.5t-99 -95.5t-112.5 -41t-85.5 -8t-83 8t-106 40t-90 94.5t-36 168.5q0 37 -1 89t-2 101.5t-2 88zM195 356q0 -14 5 -38.5t17 -49t33.5 -43t56.5 -18.5q33 0 55.5 7t37 19.5 t22.5 30t16 37.5q8 23 11.5 70t2.5 96t-4.5 91t-5.5 54q0 29 -13 54.5t-32.5 45t-40 32t-30.5 12.5q-6 0 -26.5 -15.5t-42 -39t-39 -53.5t-17.5 -60q0 -18 -1 -50t-2 -66t-2 -65.5t-1 -50.5zM215 1049q-2 -25 15.5 -47.5t39.5 -38.5q25 -20 58 -39q31 23 53 45 q20 18 36.5 40.5t16.5 41.5q0 18 -3 37.5t-15.5 37t-34.5 28.5t-59 11q-33 0 -53.5 -13t-33 -31.5t-16.5 -38t-4 -33.5z" />
<glyph unicode="9" d="M-53 186l12 19q29 23 56.5 47t56.5 47q8 8 28.5 -5t48 -32.5t62.5 -37t76 -17.5q47 0 76.5 21.5t45 56t21.5 75.5t7 79t-1 69t0 43q0 8 -1 14.5t-1 16.5q-23 -14 -42 -28.5t-40 -25.5q-57 -29 -108 -28q-18 0 -57.5 8t-78 30.5t-68.5 62.5t-30 104v73.5v96t1 89.5t3 56 q6 51 22.5 103.5t53.5 94.5t99.5 68.5t158.5 26.5t153.5 -28t87 -64.5t40 -74.5t14.5 -59q2 -18 5 -64t4 -106.5t2 -129t1 -131v-112.5v-73q0 -242 -87 -360.5t-273 -118.5q-92 0 -155.5 28.5t-104.5 63.5t-61.5 66.5t-26.5 35.5zM215 793q0 -16 8 -34t23.5 -32t34 -23.5 t41.5 -9.5q55 0 83.5 37t32.5 92v44v62t-1 58.5t-1 32.5q-4 57 -34.5 85t-71.5 28q-37 0 -59.5 -16.5t-34 -41t-14.5 -50.5t-5 -44q0 -18 -1 -44t-1 -52.5v-51v-40.5z" />
<glyph unicode=":" horiz-adv-x="385" d="M0 92.5v47v34.5q0 27 23 27q35 4 68.5 2t68.5 0q37 4 37 -33v-143q0 -20 -13.5 -32.5t-29.5 -12.5t-52 1t-61 5q-10 2 -21.5 11t-15.5 19q-2 8 -3 29t-1 45.5zM2 748.5v76.5q0 35 33 35q20 0 39.5 2t38.5 2v2h49q12 -2 21.5 -6t11.5 -20q2 -47 3 -90t1 -91q0 -43 -41 -38 q-29 2 -58.5 -0.5t-58.5 2.5q-20 4 -28.5 17t-8.5 32q-2 39 -2 76.5z" />
<glyph unicode=";" horiz-adv-x="382" d="M-39 -61q27 29 31 63.5t4 69.5q2 20 -1 40.5t-1 41.5q6 37 41 39q27 4 60.5 2t60.5 0q23 2 31 -6.5t10 -30.5q2 -29 2 -60.5v-62.5q0 -74 -31 -109t-55 -39q-35 -4 -71 -2t-71 21q-6 4 -10 16t0 17zM-2 772q-4 43 10.5 57.5t28.5 14.5h22.5t35 -1t35.5 -1h28q37 0 41 -39 q4 -41 3 -67.5t1 -65.5q0 -25 -17.5 -32t-40.5 -7h-100q-23 0 -31 9t-12 26q-4 25 -3 54t-1 52z" />
<glyph unicode="&#x3c;" horiz-adv-x="776" d="M5 624.5q1 10.5 9 16.5q23 18 65 50t92 68t103.5 73.5t98.5 68.5t74.5 52.5t35.5 23.5q10 4 18.5 1t16.5 -9l17 -17q14 -18 28 -37q10 -16 21.5 -35.5t15.5 -37.5q4 -14 -8 -23q-23 -14 -59.5 -38.5t-76.5 -51.5t-78 -51.5t-59 -38.5q-4 -4 -5 -11t3 -10q6 -4 30 -22 t54.5 -44t66.5 -54.5t67.5 -54t53 -45t27.5 -23.5q16 -16 15.5 -28.5t-17.5 -29.5l-41.5 -41.5t-54.5 -42.5q-25 -18 -51 5q-41 33 -108.5 87t-137 109t-128 103.5t-83.5 70.5q-6 6 -5 16.5z" />
<glyph unicode="=" horiz-adv-x="661" d="M0 756.5v41t2 38.5q4 23 14.5 29.5t34.5 6.5q2 0 26.5 1t62.5 1t83 1.5t88 1.5t78 -0.5t51 -2.5q6 0 14.5 -9t8.5 -15q4 -29 4 -57.5t-2 -57.5q-4 -63 -70 -59q-20 2 -79.5 3t-124 2t-115.5 1h-58q-16 0 -16 20q0 6 -1 20.5t-1 34zM4 406q0 12 1 33.5t1 45v43v27.5 q0 29 29 29h395q23 0 31 -15.5t8 -38.5v-106q0 -16 -7 -27.5t-36 -13.5q-18 0 -69.5 -1t-113 -1h-119.5h-89q-2 0 -17.5 1t-13.5 24z" />
<glyph unicode="&#x3e;" horiz-adv-x="831" d="M-2 860q23 27 42 52.5t42 50.5q16 20 26.5 21t30.5 -13q29 -20 76 -53t101.5 -70t108.5 -76t99 -70.5t76 -54t35 -26.5q14 -14 13 -27.5t-19 -34.5q-6 -6 -39 -28.5t-79 -52t-100.5 -65.5t-106.5 -68t-97 -57.5t-70 -37.5q-8 -4 -23.5 -10.5t-31.5 22.5 q-16 27 -26.5 44.5t-26.5 41.5q-14 23 -11.5 43.5t43.5 38.5q33 16 78 41t86 48.5t72 42t37 22.5q14 8 5 17t-5 5q0 -2 -21.5 12.5t-55.5 36t-74 48t-76.5 50t-65.5 42t-37 24.5q-25 20 -6 41z" />
<glyph unicode="?" horiz-adv-x="874" d="M10 1080.5q10 23.5 31 45.5q20 25 53 58t80 63.5t109.5 51t142.5 18.5q80 0 135 -37t88 -84t46.5 -94t13.5 -68q0 -92 -33 -154.5t-76 -103.5t-87 -64.5t-67 -39.5q-27 -16 -39 -49t-12 -50q0 -16 1 -63t1 -88q2 -29 -9 -44.5t-28 -15.5h-26.5t-39 -1t-38.5 -1h-25 q-14 2 -25 10.5t-13 37.5q-4 47 -5.5 81.5t-1.5 81.5q0 68 36 125.5t82 101.5t90 72.5t63 38.5q23 16 36 42t13 53q0 6 -5 23t-15.5 35.5t-29 34t-48.5 15.5q-31 0 -73 -23.5t-84 -55.5t-75 -61.5t-45 -41.5q-14 -14 -29.5 -9t-19.5 13q-12 16 -28.5 44t-28.5 44 q-25 35 -15 58.5zM206 95.5q-1 21.5 0 44t3 40.5q0 10 12 19.5t21 9.5q23 2 63.5 1t56.5 -1t33 -9.5t17 -31.5q0 -23 1 -60.5t1 -56.5q0 -16 -17.5 -33.5t-36.5 -17.5q-16 0 -50 -1t-60 3q-10 2 -20.5 12.5t-16.5 20.5q-4 6 -5 22.5t-2 38z" />
<glyph unicode="@" horiz-adv-x="1345" d="M-61 678q0 43 11 108.5t37.5 137t72.5 144.5t116 130t167 93t226 36q137 0 235.5 -36t167 -91t109.5 -122.5t64.5 -132t31 -118t7.5 -79.5q0 -162 -33 -254.5t-75 -137.5t-81 -56t-49 -11q-41 -4 -82 2t-78 35q-23 16 -41 2q-41 -29 -85 -38t-85 -9q-20 0 -68 8 t-98.5 36.5t-89 83t-38.5 144.5v115.5t4 85.5q2 14 14 58t43 91t84 84t137 37q94 0 154.5 -34t94.5 -80t46 -96t12 -81v-186q0 -23 13.5 -39t36.5 -16q12 0 24 6t23.5 28.5t18.5 65.5t7 117q0 33 -16 101.5t-63.5 139t-134.5 123.5t-228 53q-111 0 -188.5 -46t-125 -116.5 t-69 -156.5t-21.5 -164q0 -111 25 -188.5t64.5 -130t88 -83t96.5 -47t90 -20.5t67 -6q86 0 135 23.5t67 29.5q6 2 12.5 4t14.5 -10q4 -6 16.5 -23.5t26.5 -37.5q16 -23 37 -50q4 -12 6 -20q0 -8 -3 -17.5t-13 -13.5q-16 -6 -52.5 -19.5t-83.5 -26.5t-99 -23.5t-99 -10.5 q-57 0 -124 9.5t-134.5 37t-130 76.5t-110.5 127t-76.5 189.5t-28.5 265.5zM475 578q0 -27 11.5 -45.5t27.5 -29.5t36 -16.5t36 -5.5q59 0 81.5 30t22.5 54q0 16 -1 44t-1 53v61q-2 31 -14 53q-10 20 -31.5 36.5t-62.5 16.5t-61.5 -17t-31.5 -38q-10 -23 -12 -53v-143z" />
<glyph unicode="A" horiz-adv-x="946" d="M-31 104q4 23 29 117t58.5 222t71.5 271.5t70.5 265.5t55 204t27.5 86q8 10 19 17t24 7q36 0 72 2q12 1 23 1q24 0 46 -3q16 0 24.5 -2t14.5 -16q10 -27 32.5 -120t49 -220t55.5 -269.5t53.5 -267.5t43 -218t22.5 -118q4 -16 0.5 -25t-19.5 -13q-4 -2 -25.5 -7.5 t-47 -12.5t-50 -14t-34.5 -9q-16 -4 -26.5 1t-14.5 13q-6 8 -8 22q-10 51 -19 103q-8 43 -17.5 88t-13.5 76q-4 16 -11 21t-23 3q-8 0 -40 1t-67 1t-63.5 -2t-28.5 -8q-2 -6 -12.5 -50t-22.5 -97.5t-23.5 -97.5t-15.5 -50t-28.5 -1t-52 13.5t-51 16.5t-26.5 8 q-25 6 -42 19.5t-9 41.5zM299 520q2 -2 16.5 -4t35 -2h41t34.5 2q4 0 8 2t0 21q-2 20 -8 60t-13 83t-14.5 81t-9.5 50q-2 0 -3 8t-7 -8q-2 -6 -8 -29.5t-15.5 -55.5t-19.5 -67.5t-19.5 -66.5t-14.5 -51.5t-3 -22.5z" />
<glyph unicode="B" horiz-adv-x="980" d="M8 51v1258q0 41 41 41h215q41 0 115 -13.5t146.5 -48.5t126 -97.5t53.5 -160.5q0 -55 -19.5 -98t-47.5 -74t-58.5 -48.5t-53.5 -21.5q53 -16 100.5 -52t83 -81t56 -96t20.5 -100v-99q0 -98 -35.5 -170.5t-89 -118.5t-114 -68.5t-107.5 -22.5h-342q-51 0 -70.5 16 t-19.5 55zM229 305q0 -49 2.5 -83t4.5 -36q4 -4 38.5 -2t87.5 2q27 0 62 12.5t65.5 37t52 62.5t21.5 89v59q0 39 -16.5 75t-44 61.5t-65.5 41t-81 15.5q-12 0 -30.5 1l-37 2t-33.5 0t-19 -3q-2 -2 -3.5 -36t-2.5 -83t-1 -107.5v-107.5zM229 893q0 -16 9 -21q4 -2 8 0 q74 6 131 27q49 16 89 46t40 79q-2 53 -40 83t-85 44q-53 16 -125 18q-6 0 -12 -2q-12 -4 -13 -20v-56v-80t-1 -76t-1 -42z" />
<glyph unicode="C" horiz-adv-x="768" d="M-18 840.5q0 62.5 2 95.5q0 18 3 56t13 84t29.5 96.5t52.5 90.5t83 66.5t122 26.5q86 0 141 -29t88 -73t47.5 -97t18.5 -101q2 -27 2 -52q0 -18 -1 -34q-3 -38 -3 -52q-2 -20 -18.5 -20.5t-29.5 -2.5q-27 -2 -45 0t-47 0q-37 -2 -47 33q-2 8 -2 45t-9 79t-29.5 75.5 t-61.5 33.5q-20 0 -40 -18.5t-34 -49t-23.5 -70.5t-9.5 -83v-71.5v-117t-1 -137t-1 -132v-102.5v-48q0 -14 4 -43t14.5 -58.5t28 -51t43.5 -21.5q49 0 74 46t34 102t9 104.5v52.5q-2 25 25 24q35 2 64.5 3.5t66.5 3.5h7q34 0 34 -37q0 -11 2 -53q1 -12 1 -25q0 -33 -4 -73 q-5 -56 -21.5 -118.5t-52.5 -116t-95.5 -88t-151.5 -34.5q-63 0 -113.5 21.5t-86 58.5t-55 86t-19.5 104q0 12 -1 60.5t-2 118t-2 149.5t-2 155.5t-1 138z" />
<glyph unicode="D" horiz-adv-x="851" d="M6 4v68.5v152.5v208t1 234.5t2 233.5t1 205t1 146.5t3 60.5q2 8 22.5 11t50.5 4h31h34q36 -1 69 -1q156 0 250 -59.5t143.5 -143.5t64.5 -173t15 -150v-281q0 -262 -107.5 -397t-305.5 -135q-51 0 -101 -1q-25 0 -46.5 -0.5t-41.5 0.5q-39 1 -62.5 4t-23.5 13zM217 225 q0 -25 7.5 -27.5t11.5 -2.5q133 10 187 72.5t54 176.5q0 51 1 107.5t1 112v105.5t-2 93q-2 49 -20.5 94t-45 79t-59.5 54.5t-65 20.5q-16 0 -28.5 -1t-25.5 -1q-14 4 -14 -18v-96.5v-148.5t-1 -176.5t-1 -179.5v-156.5v-107.5z" />
<glyph unicode="E" horiz-adv-x="831" d="M14 6v60.5v137.5v188.5v215v216t1 193.5t1 144.5v69.5q0 14 13.5 30.5t27.5 16.5h64.5h98.5h113.5h112h93.5h57q25 0 38 -10.5t17 -22.5q6 -14 4 -33v-47q0 -20 -2 -43t-6 -39q-16 -16 -37.5 -19t-46.5 1h-41h-74.5h-81.5t-63 2q-35 2 -40 -4t-9 -39v-51t2 -60.5t3 -52 t1 -29.5q25 3 68 3h22q33 0 67 -2q46 -2 86 -3.5t54 -3.5q20 -6 25 -32q2 -12 2 -27v-41q-2 -16 -4 -36.5t-7 -37.5q-10 -12 -36 -16q-12 -2 -27 -2q-57 -2 -104 -2q-41 -2 -77 -2h-46q-27 0 -27 -27q-4 -43 -4 -106.5t1 -122t2 -101.5t1 -47q12 0 54 1t95.5 1h106.5h88 q16 0 27.5 -5t15.5 -9q6 -6 8 -12q-2 -39 -4 -74q-2 -29 -2 -55.5v-32.5q0 -12 -14.5 -21.5t-30.5 -9.5h-56h-104.5t-128 -1t-129 -1h-107.5h-61z" />
<glyph unicode="F" d="M6 923.5q0 100.5 1 178.5t2 126t3 50t51.5 4t122 2t157.5 -1t157.5 -1t124 -1t55.5 -1q6 0 7 -14.5t-1 -34t-5 -42t-5 -38.5q0 -8 -3 -20.5t-9.5 -24.5t-17.5 -20.5t-25 -8.5h-76h-109.5t-100.5 -1t-46 -1q-23 -4 -35 -6t-18.5 -8t-8.5 -18.5t-2 -32.5q-1 -22 -1 -44v-23 q1 -34 1 -46t9.5 -21.5t25.5 -9.5h40t71 1t72.5 1h43.5t15.5 -17t7.5 -43t1 -55.5t-3 -52.5q0 -18 -43 -25t-95 -8q-26 0 -49.5 -0.5t-45.5 0.5q-44 1 -46 -1q-4 -2 -4 -74t1 -172.5t3 -209t2 -185.5q0 -18 -26.5 -24.5t-60.5 -7.5h-16q-25 0 -48 2q-31 3 -41 3 q-20 0 -24.5 15.5t-4.5 45.5v90.5t-1 155.5t-1 196.5t-1 214t-1 208z" />
<glyph unicode="G" d="M-37 818.5v100.5v50q0 119 44 190.5t102.5 109.5t112.5 49t77 11q74 0 125 -24.5t86 -57.5t56.5 -65.5t33.5 -48.5q20 -27 -10 -43q-29 -16 -67 -43t-66 -46q-8 -6 -18.5 9.5t-28 36t-46 39t-73.5 18.5q-29 0 -48.5 -16.5t-32.5 -39t-19.5 -47t-8.5 -43.5q-2 -16 -2 -61 v-103.5v-123v-119.5v-94v-45q0 -12 4 -48t20.5 -76t48.5 -71t85 -31q57 0 84 41t37 93q9 48 9 92v9q-1 48 -1 64h-70.5t-66.5 -2q-31 0 -29 29q2 34 2 68t-2 69q-2 23 9.5 32t29.5 11h160q55 0 123 -2q14 0 24 -6q10 -4 18.5 -12t8.5 -25v-66.5v-44v-44t-2 -66.5 q0 -104 -19.5 -190t-61.5 -147.5t-107.5 -94.5t-155.5 -33q-86 0 -145.5 27.5t-100.5 71.5t-63.5 96.5t-35 101.5t-15.5 89t-3 56v54.5v105t-1 129t-1 127z" />
<glyph unicode="H" d="M6 1272q0 23 23 26q6 2 28.5 2t44.5 3q27 0 62 2q16 0 31 -5q10 -4 20 -11t10 -21v-74.5t-1 -120t-1 -119v-69.5q-2 -10 10 -19q6 -4 13 -4q51 -2 90 -2q35 0 62.5 2t27.5 8v55.5t1 115t1 132v105.5q0 25 25 25h165q27 0 27 -29v-111.5v-228.5v-285.5t1 -282.5t1 -218.5 v-94.5q0 -16 -7 -37.5t-30 -21.5h-116q-45 4 -53.5 15t-8.5 57v559q0 29 -24 26q-41 -2 -89.5 -2h-64.5t-22.5 -9t-6.5 -38v-54t-1 -105.5t-1 -132t-1 -132t-1 -104.5v-49q-2 -20 -13 -24.5t-26 -4.5q-31 0 -73.5 1t-73.5 3q-18 0 -19.5 18.5t-1.5 42.5q0 23 -1 118 t-1 225.5t-1 276.5t-2 273t-2 215t-1 103z" />
<glyph unicode="I" horiz-adv-x="428" d="M10 45v118v207.5v254v255v210v120.5q2 41 3 59.5t9.5 23.5t24.5 2t47 -3q27 0 55.5 -2t55.5 -4q23 0 22 -26q-2 -43 -3 -145.5t-1 -231.5v-268.5v-256v-196.5v-90q0 -29 -3 -50.5t-21 -21.5q-10 0 -29.5 -1t-41.5 -1h-44.5t-38.5 2l-6 -2t-12.5 1t-11.5 13.5t-5 32.5z " />
<glyph unicode="J" horiz-adv-x="768" d="M-82 479q0 4 2.5 17.5t18.5 13.5h153q27 0 27 -29q0 -23 1 -39t1 -30.5v-30.5t2 -39q2 -47 34.5 -88t73.5 -41t64.5 33t36 77t15.5 88t3 64v116v161t-1 177t-1 164.5v123t2 55.5q0 6 8.5 13t14.5 9q27 1 55 1h27h27l55 1q16 0 20 -7t4 -21v-97.5v-156.5v-185.5t1 -183.5 t1 -150.5v-86.5q0 -117 -29.5 -198t-76.5 -131t-104.5 -73.5t-114.5 -23.5q-37 0 -91.5 13t-104.5 48t-85 95.5t-35 156.5v71t-4 113z" />
<glyph unicode="K" horiz-adv-x="841" d="M8 23v1241q0 18 4 27t25 9q37 0 79 1.5t77 3.5q31 0 28 -31v-91.5t1 -124t2 -115.5t1 -66q0 -11 31 -11h2q30 0 66 18t67 58.5t31 108.5q0 16 -1 56t-1 80v71.5v33.5q2 2 18.5 2h39h47h42.5q41 0 47.5 -7t8.5 -46v-60.5v-76.5t-1 -74t-1 -49q-2 -16 -8.5 -42t-18.5 -53.5 t-31.5 -54t-50.5 -43.5q-14 -8 -12 -16t12 -12q35 -20 58.5 -49t39.5 -58q20 -37 26 -77q4 -25 5 -51q0 -16 -2 -31v-57.5v-89.5v-103.5v-100.5v-79.5v-40.5q0 -6 -4 -13.5t-8 -7.5q-12 -2 -35 -2h-46.5h-43h-21.5q-18 0 -28.5 2t-14.5 10t-5 24.5t-1 45.5v93.5v132v134 t-2 99.5q-6 53 -40 84.5t-75 42.5q-14 2 -30.5 6t-29.5 1t-21.5 -15.5t-8.5 -38.5q0 -29 -1 -80.5t-2 -111.5t-1 -124.5t-1 -120t-1 -97.5v-56q0 -16 -9 -22.5t-22 -8.5q-12 0 -37.5 -2t-53 -2t-51 1t-32.5 5q-4 2 -5 8t-1 13z" />
<glyph unicode="L" horiz-adv-x="811" d="M10 59q0 20 1 106.5t1 206.5t1 257t1 262v221v133q0 20 7.5 28.5t29.5 8.5q37 0 79 -2q14 -1 27 -1q27 0 52 3q27 2 27 -27q-2 -23 -2.5 -96.5t-1.5 -173.5t-1 -216v-222.5t1 -190.5t1 -123q0 -10 6.5 -16t10.5 -6h344q45 0 45 -41v-69.5t-4 -67.5q0 -10 -8.5 -18.5 t-16.5 -10.5q-6 -2 -47 -3t-99 -2t-126 -1h-127t-103.5 1t-56.5 1q-16 0 -28.5 18.5t-12.5 40.5z" />
<glyph unicode="M" horiz-adv-x="1386" d="M-45 72q4 18 20.5 100t40 196.5t51 248t52 254t43 214t24.5 132.5q4 16 11.5 27t23.5 11q8 0 26.5 1t39.5 4q23 2 51 2q14 2 29 -2q10 -4 22 -11.5t19 -23.5q6 -16 21 -63.5t35.5 -110t43 -131t42 -126t33 -94t17.5 -36.5q2 0 17.5 38.5t38 98t48 130t49 134t41 111 t23.5 59.5q4 4 10.5 15.5t22.5 11.5q8 0 32.5 1t50 1t47.5 -1t26 -3q2 -2 12 -49.5t26.5 -126t37 -179t42 -207t42 -211t38 -192.5t29.5 -148.5t16 -80.5q2 -8 -3 -20.5t-11 -14.5q-35 -14 -79 -27.5t-79 -23.5q-14 -4 -32.5 11t-22.5 34q-10 51 -24.5 126.5t-31 157.5 t-31.5 164t-28.5 147.5t-23 105.5t-11.5 40q-4 0 -18 -30.5t-33.5 -78t-43 -102.5t-45 -104.5t-37 -85t-19.5 -41.5q-4 -4 -17.5 -15.5t-23.5 -11.5h-18.5t-28 1t-30.5 1h-23q-16 0 -33 6t-25 35q-6 18 -19.5 57t-28.5 86t-32.5 96.5t-32 90.5t-25.5 66.5t-13 25.5 t-12.5 -53.5t-25 -132t-30.5 -172t-29.5 -173t-21.5 -133t-8 -55.5q-4 -18 -12.5 -26.5t-18.5 -12.5t-25 -4l-157 25q-10 0 -19 6q-16 12 -12 41z" />
<glyph unicode="N" horiz-adv-x="960" d="M12 43q0 305 2 557q0 106 1 213t1 196v151.5v84.5q0 20 7.5 29.5t29.5 9.5q10 0 29.5 -1t40.5 -1h51q14 0 27 -4q10 -4 19 -9t13 -18q6 -18 28 -72.5t50.5 -126t61.5 -153.5t62.5 -155.5t54 -131t34.5 -77.5q4 20 4 28v137.5t-1 197.5t-2 197.5t-3 141.5q-2 33 4 40t39 9 q35 2 75 3t75 5q35 2 35 -32v-123t1 -199t1 -241v-248.5v-223t2 -164.5q0 -31 -18.5 -46t-35.5 -15h-67q-23 0 -51 2q-16 -2 -31 2q-12 4 -24.5 9t-18.5 22q-6 10 -18.5 41t-31 74t-40 95t-43.5 105q-53 125 -115 275l-4 8q-2 4 -4 7t-4 7h-8v-56v-111.5v-139.5v-138.5 v-109.5v-53q0 -25 -9.5 -33t-33.5 -10q-29 -4 -62 -4t-61 -4q-18 -4 -29.5 4t-19.5 18q-8 12 -13 31z" />
<glyph unicode="O" horiz-adv-x="880" d="M6 445.5v137v141.5v124v84q0 102 27.5 174t77 118t119 66.5t153.5 20.5t143.5 -31t96 -83t54 -121.5t17.5 -149.5v-64.5v-102t1 -121t1 -123.5v-111v-82q0 -47 -19.5 -104.5t-60.5 -110t-103 -87t-146 -34.5q-109 0 -175.5 31.5t-105.5 76.5t-54.5 94.5t-19.5 81.5 q-2 16 -4 63.5t-2 112zM207 856q0 -49 1 -109.5t1 -124t1 -117.5t1 -91t2 -43q0 -10 4 -37t17.5 -54.5t41 -50t74.5 -22.5q80 0 107.5 45t27.5 117v565q0 12 -2 41t-13 58.5t-37.5 51t-76.5 21.5q-80 0 -114.5 -48t-34.5 -126v-76z" />
<glyph unicode="P" horiz-adv-x="792" d="M10 59v125.5v224.5t1 270t1 266t1 212t1 107q2 27 18.5 35t28.5 8h236q113 0 178.5 -40t99 -92.5t43 -102.5t9.5 -71q0 -41 1 -80.5t1 -78.5q0 -139 -50.5 -209t-121.5 -94q-20 -6 -57.5 -12.5t-75 -11.5t-68.5 -8t-39 -3q0 -31 -1 -97.5t-2 -139t-2 -135t-1 -83.5 q0 -37 -33 -39h-27.5h-35h-31.5h-16q-8 -1 -15 -1q-42 0 -43 50zM213 694q29 2 53 4q23 2 46.5 5.5t39.5 9.5q33 10 52.5 45t19.5 63v193q0 29 -16.5 59.5t-51.5 38.5q-18 4 -42.5 6t-47.5 2h-51z" />
<glyph unicode="Q" horiz-adv-x="876" d="M6 377v77t1 116.5t2 136t2 135t1 114v70.5q0 68 21.5 131.5t62.5 112.5t98.5 78.5t131.5 29.5q80 0 143 -29.5t108.5 -79.5t70 -114.5t24.5 -134.5v-81t1 -127t1 -148.5v-147.5t-2 -123t-4 -76q-4 -41 -21.5 -77.5t-34.5 -73.5q-6 -16 -7 -26.5t9 -20.5 q12 -16 23.5 -29.5t24.5 -30.5q23 -29 19.5 -45t-34.5 -39q-23 -14 -44 -28.5t-44 -28.5q-16 -10 -30.5 -7t-24.5 19q-27 41 -53 70q-12 12 -27 8q-50 -16 -97 -16h-10q-18 0 -68 7t-104.5 44t-96.5 115t-42 219zM205 420q0 -37 8 -73t25.5 -64.5t44 -46t61.5 -17.5 t59.5 21.5t40 52.5t21.5 62.5t6 52.5v60v108.5t1 133t1 133v108.5v59q0 72 -27.5 119t-105.5 47q-51 0 -77.5 -23t-39.5 -51q-14 -33 -16 -72q-2 -143 -2 -268v-342z" />
<glyph unicode="R" horiz-adv-x="919" d="M6 53v155.5v226.5t1 254t1 239.5v185.5v90q0 43 32 61.5t60 18.5q14 0 45 1t71 1t85 -1t86 -3q63 0 127 -23.5t114 -68.5t80.5 -108.5t30.5 -143.5q0 -98 -30.5 -163.5t-70.5 -105.5t-77 -59.5t-47 -25.5q-8 -4 -20.5 -7.5t-18.5 -7.5q4 -12 22.5 -48t44 -86t54.5 -105.5 t54.5 -103.5t43 -81.5t21.5 -42.5q12 -23 10 -35t-27 -24q-33 -16 -58.5 -27.5t-59.5 -21.5q-8 -4 -25.5 -7t-34.5 31q-4 6 -22.5 42t-43 86.5t-53 108.5t-53 109.5t-42 88t-21.5 47.5q-10 18 -22.5 32.5t-53.5 10.5q0 -10 -1 -49t-1 -91.5v-111v-108.5v-85v-39 q0 -39 -10.5 -45t-32.5 -10q-4 0 -21.5 -2t-39 -2h-42t-32.5 4q-8 4 -15.5 13.5t-7.5 35.5zM209 1047q2 -47 2 -103.5v-103.5q0 -10 1 -21.5t-1 -23.5q0 -16 6 -26.5t27 -10.5q18 0 28.5 -1t19.5 -1h19.5t28.5 2q6 0 36 8t61.5 29.5t57 55.5t25.5 87t-24.5 82t-57 43 t-65.5 17t-47 3h-41t-43 -2q-33 0 -33 -34z" />
<glyph unicode="S" horiz-adv-x="831" d="M-33 1014q0 51 23.5 106.5t69.5 100.5t113 73.5t155 28.5q84 0 141 -30.5t93 -67.5t52.5 -69t18.5 -34q14 -20 12 -29.5t-22 -21.5q-31 -18 -62 -36.5t-63 -35.5q-6 -4 -18.5 -2t-12.5 7q-16 41 -53 77.5t-86 36.5t-94.5 -27.5t-45.5 -101.5q0 -37 27 -65.5t61.5 -49 t68.5 -35t50 -24.5t60.5 -41t91.5 -80t83 -116.5t36 -155.5q0 -20 -4.5 -59t-16.5 -87.5t-35.5 -99.5t-63.5 -93t-99.5 -68.5t-141.5 -26.5t-143.5 27.5t-103.5 69.5t-63.5 90t-21.5 91q-1 42 -1 84v42v42q0 42 -1 82q0 16 5.5 20.5t21.5 4.5h54.5h58t49 -2.5t26.5 -8.5 q6 -4 7.5 -21t1.5 -40v-48.5t2 -45.5q2 -12 8 -37t20.5 -48.5t38 -42t60.5 -18.5t58 18.5t33.5 48.5t15.5 68.5t3 81.5q0 55 -34.5 93.5t-86 70t-113 63.5t-112.5 76t-86 107.5t-35 157.5z" />
<glyph unicode="T" horiz-adv-x="874" d="M-27 1237q-4 27 16.5 38t35.5 11h630q27 0 44.5 -3t17.5 -19v-29t-1 -53.5t-1 -55v-32.5q0 -16 -17.5 -19.5t-54.5 -3.5h-170q-4 0 -9 -4t-5 -10q0 -31 -1 -112t-1 -185.5v-219v-213t1 -167t1 -80.5v-13q-1 -39 -11 -51q-12 -14 -59 -16q-23 -2 -53.5 -2h-52.5 q-25 0 -33 12.5t-8 36.5v89t-1 180.5t-1 225.5t-1 226t-1 185v100q0 18 -8.5 22t-22.5 2q-23 -2 -59.5 -3t-71.5 -1t-62.5 1t-29.5 1q-4 0 -5.5 24.5t-2.5 54.5t-2 55.5t-1 27.5z" />
<glyph unicode="U" d="M14 1267.5q0 12.5 2.5 21.5t8.5 9t23.5 1t41 1t49 1.5t43.5 1.5q16 0 21.5 -8.5t5.5 -22.5v-67.5v-118v-149.5v-163v-424q6 -39 20 -67q12 -27 36 -47.5t65 -20.5t63.5 17.5t32.5 41t13 48t5 40.5q2 20 2 95v174.5v209t-1 203t-2 155t-1 63.5q-2 20 6.5 29t18.5 14 q10 4 25 2h114q12 -2 21 -9q8 -4 14 -13t6 -23q0 -23 1 -99t1 -179t1 -218t1 -214t-1 -168t-1 -79q-4 -43 -22.5 -99t-54 -105.5t-91 -83t-135.5 -33.5q-92 0 -154.5 32.5t-101.5 78.5t-56.5 95.5t-17.5 83.5v82v163v206v211v178v107q0 8 -1 21t-1 25.5z" />
<glyph unicode="V" horiz-adv-x="892" d="M-57 1208q-8 25 16 31q35 12 69.5 24.5t69.5 22.5q23 6 36 -5t18 -30q6 -25 22 -82t34.5 -129.5t39 -151.5t39 -147.5t31 -117t14.5 -58.5q2 -4 6 -16h8q4 10 18.5 61.5t34 124t43 156.5t44 159.5t36 133t21.5 76.5q6 27 30 20q39 -8 76 -16.5t74 -16.5q33 -8 22 -43 q-10 -37 -33.5 -129t-54 -213t-64.5 -254t-63.5 -249.5t-50 -201.5t-26.5 -110q-2 -6 -6.5 -13t-10.5 -9q-34 -12 -66 -12q0 1 -2 1h-4q-32 0 -65 -10q-35 -10 -45 29q-10 37 -33.5 131t-56.5 216t-69 257t-66.5 254t-54 206t-31.5 111z" />
<glyph unicode="W" horiz-adv-x="1214" d="M-43 1190q-2 29 23 35q70 23 137 37q35 10 43 -29q6 -37 16 -105.5t23.5 -152.5t28 -171t25.5 -159t19.5 -120t8.5 -52q0 -12 4 -8q2 2 4 6q29 92 55 178q23 74 48.5 153t43.5 136q0 4 13 8l12 4q45 4 82 4q31 0 57.5 -2t30.5 -12q2 -6 10 -38t19.5 -76t23.5 -93 t22.5 -92t18.5 -71.5t8 -32.5q2 -10 6 -7q2 2 2 7q33 199 58 360q10 68 20 135.5t19.5 122.5t15.5 93t8 48q2 4 4 9.5t13 9.5q4 2 34.5 0t65.5 -5t63.5 -7.5t32.5 -10.5q2 -2 -5 -57t-20.5 -143t-31 -201t-35.5 -229.5t-35.5 -230.5t-33 -204t-25.5 -147t-12 -64 q-4 -6 -13.5 -11t-19.5 -5q-31 -3 -62 -3h-15h-25q-26 0 -52 -1q-43 0 -51 37q-10 39 -29.5 112.5t-38 148.5t-32 131t-13.5 60q-2 6 -5 1t-7 -15q0 -4 -16.5 -49t-38 -106.5t-42 -125t-32.5 -100.5q-4 -18 -13.5 -39.5t-25.5 -36.5q-8 -10 -32.5 -12t-52.5 -2t-51.5 2 t-29.5 2q-14 0 -26.5 14.5t-16.5 32.5q-6 33 -20.5 124t-34 211t-39.5 251t-38.5 246.5t-31 199.5t-16.5 107z" />
<glyph unicode="X" horiz-adv-x="874" d="M-82 51q-10 25 4 53q23 49 64 136.5t84 178.5t79.5 165.5t49.5 99.5q16 27 2 59q-59 109 -115.5 216.5t-116.5 218.5q-12 23 11 34q31 20 62.5 40t61.5 42q29 20 48 -10q10 -18 37.5 -71.5t56 -111t52.5 -101.5t28 -44q2 0 22.5 39t45 90.5t49 102.5t36.5 78q16 29 51 22 q10 -2 29 -8l38 -12t34.5 -11.5t19.5 -5.5q23 -8 27 -17t-6 -32q-51 -111 -101.5 -222.5t-103.5 -223.5q-8 -18 -8 -36t8 -36q20 -43 61 -126t82 -170t77 -160.5t48 -98.5q4 -10 3 -22.5t-7 -20.5q-25 -33 -58.5 -52.5t-70.5 -33.5q-10 -2 -23.5 4t-17.5 14q-18 33 -41.5 81 t-48.5 99.5t-50.5 101.5t-45 91t-31.5 65.5t-14 24.5t-19.5 -34.5t-42 -87t-53.5 -113t-53.5 -112.5t-41 -88t-16.5 -38q-8 -23 -21 -25.5t-32 3.5q-25 8 -48 15t-46 15q-29 10 -39 35z" />
<glyph unicode="Y" horiz-adv-x="874" d="M-43 1201q4 13 35 30q27 16 53.5 29.5t52.5 29.5q20 8 35 -10q25 -45 61.5 -115.5t71.5 -137t62.5 -115t31.5 -48.5q2 0 17.5 25.5t36 63.5t45 85t46 89t39 74t23.5 42q4 6 14.5 11.5t14.5 2.5q35 -12 69.5 -25t69.5 -28q29 -10 13 -39q-18 -35 -55.5 -105.5t-78.5 -148 t-77.5 -145.5t-53.5 -94q-28 -47 -28 -109v-93q0 -50 -1 -104.5t-2 -107.5t-2 -95t-1 -68.5v-28.5q2 -35 -16.5 -49.5t-33.5 -14.5h-104q-23 0 -38 12.5t-15 40.5v85.5v134t1 139t3 102.5v8q0 116 -58 215q-25 43 -60.5 111t-69 133.5t-59.5 115.5t-30 58q-16 31 -12 44z " />
<glyph unicode="Z" horiz-adv-x="897" d="M5 112.5q-1 34.5 3 63.5q0 4 20.5 45t52.5 105.5t73 144.5t84 164q98 195 225 440q4 2 4 6q0 6 -8 6h-402q-16 4 -24 13.5t-13 19.5q-4 10 -4 25v43v36.5t2 35.5q2 27 33 26q14 -2 63.5 -2h116t140 1t138 2t109 1h50.5q18 0 37.5 -8t19.5 -31v-63.5t-2 -69.5 q-2 -10 -8 -19.5t-13 -19.5q-12 -25 -50 -98.5t-88 -169.5t-103 -201.5t-99 -194.5t-74 -147q-27 -55 -26 -60q0 -5 49 -5h111.5t129 1t101.5 1q43 0 43 -41q-1 -22 -1 -43v-21q1 -32 1 -65q-2 -23 -15 -30t-34 -7h-54h-104.5h-130h-132t-110.5 1t-65 1q-29 0 -37 10t-8 39 q0 31 -1 65.5z" />
<glyph unicode="\" horiz-adv-x="630" d="M-42 1247.5q-3 14.5 1 23.5t17.5 14t37.5 15l123 43q27 10 33 -20q6 -23 31.5 -120t61.5 -232t76 -287t73.5 -283t57.5 -221t28 -102q10 -37 -1.5 -49.5t-19.5 -16.5q-10 -8 -44 -21.5t-75 -27.5q-43 -14 -54 0t-19 37q-8 31 -33 123t-57.5 215t-68.5 261t-68.5 262 t-57.5 218.5t-33 126.5q-6 27 -9 41.5z" />
<glyph unicode="_" horiz-adv-x="638" d="M0 -49q-2 35 2 63q2 37 45 37q94 2 186.5 -1t186.5 1q18 2 26.5 -3t8.5 -25v-42v-45.5v-39v-23.5q0 -12 -8.5 -16t-14.5 -4h-391q-12 -2 -21 2q-8 4 -15 10t-5 22q2 29 0 64z" />
<glyph unicode="a" horiz-adv-x="946" d="M-31 104q4 23 29 117t58.5 222t71.5 271.5t70.5 265.5t55 204t27.5 86q8 10 19 17t24 7q36 0 72 2q12 1 23 1q24 0 46 -3q16 0 24.5 -2t14.5 -16q10 -27 32.5 -120t49 -220t55.5 -269.5t53.5 -267.5t43 -218t22.5 -118q4 -16 0.5 -25t-19.5 -13q-4 -2 -25.5 -7.5 t-47 -12.5t-50 -14t-34.5 -9q-16 -4 -26.5 1t-14.5 13q-6 8 -8 22q-10 51 -19 103q-8 43 -17.5 88t-13.5 76q-4 16 -11 21t-23 3q-8 0 -40 1t-67 1t-63.5 -2t-28.5 -8q-2 -6 -12.5 -50t-22.5 -97.5t-23.5 -97.5t-15.5 -50t-28.5 -1t-52 13.5t-51 16.5t-26.5 8 q-25 6 -42 19.5t-9 41.5zM299 520q2 -2 16.5 -4t35 -2h41t34.5 2q4 0 8 2t0 21q-2 20 -8 60t-13 83t-14.5 81t-9.5 50q-2 0 -3 8t-7 -8q-2 -6 -8 -29.5t-15.5 -55.5t-19.5 -67.5t-19.5 -66.5t-14.5 -51.5t-3 -22.5z" />
<glyph unicode="b" horiz-adv-x="980" d="M8 51v1258q0 41 41 41h215q41 0 115 -13.5t146.5 -48.5t126 -97.5t53.5 -160.5q0 -55 -19.5 -98t-47.5 -74t-58.5 -48.5t-53.5 -21.5q53 -16 100.5 -52t83 -81t56 -96t20.5 -100v-99q0 -98 -35.5 -170.5t-89 -118.5t-114 -68.5t-107.5 -22.5h-342q-51 0 -70.5 16 t-19.5 55zM229 305q0 -49 2.5 -83t4.5 -36q4 -4 38.5 -2t87.5 2q27 0 62 12.5t65.5 37t52 62.5t21.5 89v59q0 39 -16.5 75t-44 61.5t-65.5 41t-81 15.5q-12 0 -30.5 1l-37 2t-33.5 0t-19 -3q-2 -2 -3.5 -36t-2.5 -83t-1 -107.5v-107.5zM229 893q0 -16 9 -21q4 -2 8 0 q74 6 131 27q49 16 89 46t40 79q-2 53 -40 83t-85 44q-53 16 -125 18q-6 0 -12 -2q-12 -4 -13 -20v-56v-80t-1 -76t-1 -42z" />
<glyph unicode="c" horiz-adv-x="768" d="M-18 840.5q0 62.5 2 95.5q0 18 3 56t13 84t29.5 96.5t52.5 90.5t83 66.5t122 26.5q86 0 141 -29t88 -73t47.5 -97t18.5 -101q2 -27 2 -52q0 -18 -1 -34q-3 -38 -3 -52q-2 -20 -18.5 -20.5t-29.5 -2.5q-27 -2 -45 0t-47 0q-37 -2 -47 33q-2 8 -2 45t-9 79t-29.5 75.5 t-61.5 33.5q-20 0 -40 -18.5t-34 -49t-23.5 -70.5t-9.5 -83v-71.5v-117t-1 -137t-1 -132v-102.5v-48q0 -14 4 -43t14.5 -58.5t28 -51t43.5 -21.5q49 0 74 46t34 102t9 104.5v52.5q-2 25 25 24q35 2 64.5 3.5t66.5 3.5h7q34 0 34 -37q0 -11 2 -53q1 -12 1 -25q0 -33 -4 -73 q-5 -56 -21.5 -118.5t-52.5 -116t-95.5 -88t-151.5 -34.5q-63 0 -113.5 21.5t-86 58.5t-55 86t-19.5 104q0 12 -1 60.5t-2 118t-2 149.5t-2 155.5t-1 138z" />
<glyph unicode="d" horiz-adv-x="851" d="M6 4v68.5v152.5v208t1 234.5t2 233.5t1 205t1 146.5t3 60.5q2 8 22.5 11t50.5 4h31h34q36 -1 69 -1q156 0 250 -59.5t143.5 -143.5t64.5 -173t15 -150v-281q0 -262 -107.5 -397t-305.5 -135q-51 0 -101 -1q-25 0 -46.5 -0.5t-41.5 0.5q-39 1 -62.5 4t-23.5 13zM217 225 q0 -25 7.5 -27.5t11.5 -2.5q133 10 187 72.5t54 176.5q0 51 1 107.5t1 112v105.5t-2 93q-2 49 -20.5 94t-45 79t-59.5 54.5t-65 20.5q-16 0 -28.5 -1t-25.5 -1q-14 4 -14 -18v-96.5v-148.5t-1 -176.5t-1 -179.5v-156.5v-107.5z" />
<glyph unicode="e" horiz-adv-x="831" d="M14 6v60.5v137.5v188.5v215v216t1 193.5t1 144.5v69.5q0 14 13.5 30.5t27.5 16.5h64.5h98.5h113.5h112h93.5h57q25 0 38 -10.5t17 -22.5q6 -14 4 -33v-47q0 -20 -2 -43t-6 -39q-16 -16 -37.5 -19t-46.5 1h-41h-74.5h-81.5t-63 2q-35 2 -40 -4t-9 -39v-51t2 -60.5t3 -52 t1 -29.5q25 3 68 3h22q33 0 67 -2q46 -2 86 -3.5t54 -3.5q20 -6 25 -32q2 -12 2 -27v-41q-2 -16 -4 -36.5t-7 -37.5q-10 -12 -36 -16q-12 -2 -27 -2q-57 -2 -104 -2q-41 -2 -77 -2h-46q-27 0 -27 -27q-4 -43 -4 -106.5t1 -122t2 -101.5t1 -47q12 0 54 1t95.5 1h106.5h88 q16 0 27.5 -5t15.5 -9q6 -6 8 -12q-2 -39 -4 -74q-2 -29 -2 -55.5v-32.5q0 -12 -14.5 -21.5t-30.5 -9.5h-56h-104.5t-128 -1t-129 -1h-107.5h-61z" />
<glyph unicode="f" d="M6 923.5q0 100.5 1 178.5t2 126t3 50t51.5 4t122 2t157.5 -1t157.5 -1t124 -1t55.5 -1q6 0 7 -14.5t-1 -34t-5 -42t-5 -38.5q0 -8 -3 -20.5t-9.5 -24.5t-17.5 -20.5t-25 -8.5h-76h-109.5t-100.5 -1t-46 -1q-23 -4 -35 -6t-18.5 -8t-8.5 -18.5t-2 -32.5q-1 -22 -1 -44v-23 q1 -34 1 -46t9.5 -21.5t25.5 -9.5h40t71 1t72.5 1h43.5t15.5 -17t7.5 -43t1 -55.5t-3 -52.5q0 -18 -43 -25t-95 -8q-25 -1 -49 -1t-46 1q-44 1 -46 -1q-4 -2 -4 -74t1 -172.5t3 -209t2 -185.5q0 -18 -26.5 -24.5t-60.5 -7.5h-16q-25 0 -48 2q-31 3 -41 3q-20 0 -24.5 15.5 t-4.5 45.5v90.5t-1 155.5t-1 196.5t-1 214t-1 208z" />
<glyph unicode="g" d="M-37 818.5v100.5v50q0 119 44 190.5t102.5 109.5t112.5 49t77 11q74 0 125 -24.5t86 -57.5t56.5 -65.5t33.5 -48.5q20 -27 -10 -43q-29 -16 -67 -43t-66 -46q-8 -6 -18.5 9.5t-28 36t-46 39t-73.5 18.5q-29 0 -48.5 -16.5t-32.5 -39t-19.5 -47t-8.5 -43.5q-2 -16 -2 -61 v-103.5v-123v-119.5v-94v-45q0 -12 4 -48t20.5 -76t48.5 -71t85 -31q57 0 84 41t37 93q9 48 9 92v9q-1 48 -1 64h-70.5t-66.5 -2q-31 0 -29 29q2 34 2 68t-2 69q-2 23 9.5 32t29.5 11h160q55 0 123 -2q14 0 24 -6q10 -4 18.5 -12t8.5 -25v-66.5v-44v-44t-2 -66.5 q0 -104 -19.5 -190t-61.5 -147.5t-107.5 -94.5t-155.5 -33q-86 0 -145.5 27.5t-100.5 71.5t-63.5 96.5t-35 101.5t-15.5 89t-3 56v54.5v105t-1 129t-1 127z" />
<glyph unicode="h" d="M6 1272q0 23 23 26q6 2 28.5 2t44.5 3q27 0 62 2q16 0 31 -5q10 -4 20 -11t10 -21v-74.5t-1 -120t-1 -119v-69.5q-2 -10 10 -19q6 -4 13 -4q51 -2 90 -2q35 0 62.5 2t27.5 8v55.5t1 115t1 132v105.5q0 25 25 25h165q27 0 27 -29v-111.5v-228.5v-285.5t1 -282.5t1 -218.5 v-94.5q0 -16 -7 -37.5t-30 -21.5h-116q-45 4 -53.5 15t-8.5 57v559q0 29 -24 26q-41 -2 -89.5 -2h-64.5t-22.5 -9t-6.5 -38v-54t-1 -105.5t-1 -132t-1 -132t-1 -104.5v-49q-2 -20 -13 -24.5t-26 -4.5q-31 0 -73.5 1t-73.5 3q-18 0 -19.5 18.5t-1.5 42.5q0 23 -1 118 t-1 225.5t-1 276.5t-2 273t-2 215t-1 103z" />
<glyph unicode="i" horiz-adv-x="428" d="M10 45v118v207.5v254v255v210v120.5q2 41 3 59.5t9.5 23.5t24.5 2t47 -3q27 0 55.5 -2t55.5 -4q23 0 22 -26q-2 -43 -3 -145.5t-1 -231.5v-268.5v-256v-196.5v-90q0 -29 -3 -50.5t-21 -21.5q-10 0 -29.5 -1t-41.5 -1h-44.5t-38.5 2l-6 -2t-12.5 1t-11.5 13.5t-5 32.5z " />
<glyph unicode="j" horiz-adv-x="768" d="M-82 479q0 4 2.5 17.5t18.5 13.5h153q27 0 27 -29q0 -23 1 -39t1 -30.5v-30.5t2 -39q2 -47 34.5 -88t73.5 -41t64.5 33t36 77t15.5 88t3 64v116v161t-1 177t-1 164.5v123t2 55.5q0 6 8.5 13t14.5 9q27 1 55 1h27h27l55 1q16 0 20 -7t4 -21v-97.5v-156.5v-185.5t1 -183.5 t1 -150.5v-86.5q0 -117 -29.5 -198t-76.5 -131t-104.5 -73.5t-114.5 -23.5q-37 0 -91.5 13t-104.5 48t-85 95.5t-35 156.5v71t-4 113z" />
<glyph unicode="k" horiz-adv-x="841" d="M8 23v1241q0 18 4 27t25 9q37 0 79 1.5t77 3.5q31 0 28 -31v-91.5t1 -124t2 -115.5t1 -66q0 -11 31 -11h2q30 0 66 18t67 58.5t31 108.5q0 16 -1 56t-1 80v71.5v33.5q2 2 18.5 2h39h47h42.5q41 0 47.5 -7t8.5 -46v-60.5v-76.5t-1 -74t-1 -49q-2 -16 -8.5 -42t-18.5 -53.5 t-31.5 -54t-50.5 -43.5q-14 -8 -12 -16t12 -12q35 -20 58.5 -49t39.5 -58q20 -37 26 -77q4 -25 5 -51q0 -16 -2 -31v-57.5v-89.5v-103.5v-100.5v-79.5v-40.5q0 -6 -4 -13.5t-8 -7.5q-12 -2 -35 -2h-46.5h-43h-21.5q-18 0 -28.5 2t-14.5 10t-5 24.5t-1 45.5v93.5v132v134 t-2 99.5q-6 53 -40 84.5t-75 42.5q-14 2 -30.5 6t-29.5 1t-21.5 -15.5t-8.5 -38.5q0 -29 -1 -80.5t-2 -111.5t-1 -124.5t-1 -120t-1 -97.5v-56q0 -16 -9 -22.5t-22 -8.5q-12 0 -37.5 -2t-53 -2t-51 1t-32.5 5q-4 2 -5 8t-1 13z" />
<glyph unicode="l" horiz-adv-x="811" d="M10 59q0 20 1 106.5t1 206.5t1 257t1 262v221v133q0 20 7.5 28.5t29.5 8.5q37 0 79 -2q14 -1 27 -1q27 0 52 3q27 2 27 -27q-2 -23 -2.5 -96.5t-1.5 -173.5t-1 -216v-222.5t1 -190.5t1 -123q0 -10 6.5 -16t10.5 -6h344q45 0 45 -41v-69.5t-4 -67.5q0 -10 -8.5 -18.5 t-16.5 -10.5q-6 -2 -47 -3t-99 -2t-126 -1h-127t-103.5 1t-56.5 1q-16 0 -28.5 18.5t-12.5 40.5z" />
<glyph unicode="m" horiz-adv-x="1386" d="M-45 72q4 18 20.5 100t40 196.5t51 248t52 254t43 214t24.5 132.5q4 16 11.5 27t23.5 11q8 0 26.5 1t39.5 4q23 2 51 2q14 2 29 -2q10 -4 22 -11.5t19 -23.5q6 -16 21 -63.5t35.5 -110t43 -131t42 -126t33 -94t17.5 -36.5q2 0 17.5 38.5t38 98t48 130t49 134t41 111 t23.5 59.5q4 4 10.5 15.5t22.5 11.5q8 0 32.5 1t50 1t47.5 -1t26 -3q2 -2 12 -49.5t26.5 -126t37 -179t42 -207t42 -211t38 -192.5t29.5 -148.5t16 -80.5q2 -8 -3 -20.5t-11 -14.5q-35 -14 -79 -27.5t-79 -23.5q-14 -4 -32.5 11t-22.5 34q-10 51 -24.5 126.5t-31 157.5 t-31.5 164t-28.5 147.5t-23 105.5t-11.5 40q-4 0 -18 -30.5t-33.5 -78t-43 -102.5t-45 -104.5t-37 -85t-19.5 -41.5q-4 -4 -17.5 -15.5t-23.5 -11.5h-18.5t-28 1t-30.5 1h-23q-16 0 -33 6t-25 35q-6 18 -19.5 57t-28.5 86t-32.5 96.5t-32 90.5t-25.5 66.5t-13 25.5 t-12.5 -53.5t-25 -132t-30.5 -172t-29.5 -173t-21.5 -133t-8 -55.5q-4 -18 -12.5 -26.5t-18.5 -12.5t-25 -4l-157 25q-10 0 -19 6q-16 12 -12 41z" />
<glyph unicode="n" horiz-adv-x="960" d="M12 43q0 305 2 557q0 106 1 213t1 196v151.5v84.5q0 20 7.5 29.5t29.5 9.5q10 0 29.5 -1t40.5 -1h51q14 0 27 -4q10 -4 19 -9t13 -18q6 -18 28 -72.5t50.5 -126t61.5 -153.5t62.5 -155.5t54 -131t34.5 -77.5q4 20 4 28v137.5t-1 197.5t-2 197.5t-3 141.5q-2 33 4 40t39 9 q35 2 75 3t75 5q35 2 35 -32v-123t1 -199t1 -241v-248.5v-223t2 -164.5q0 -31 -18.5 -46t-35.5 -15h-67q-23 0 -51 2q-16 -2 -31 2q-12 4 -24.5 9t-18.5 22q-6 10 -18.5 41t-31 74t-40 95t-43.5 105q-53 125 -115 275l-4 8q-2 4 -4 7t-4 7h-8v-56v-111.5v-139.5v-138.5 v-109.5v-53q0 -25 -9.5 -33t-33.5 -10q-29 -4 -62 -4t-61 -4q-18 -4 -29.5 4t-19.5 18q-8 12 -13 31z" />
<glyph unicode="o" horiz-adv-x="880" d="M6 445.5v137v141.5v124v84q0 102 27.5 174t77 118t119 66.5t153.5 20.5t143.5 -31t96 -83t54 -121.5t17.5 -149.5v-64.5v-102t1 -121t1 -123.5v-111v-82q0 -47 -19.5 -104.5t-60.5 -110t-103 -87t-146 -34.5q-109 0 -175.5 31.5t-105.5 76.5t-54.5 94.5t-19.5 81.5 q-2 16 -4 63.5t-2 112zM207 856q0 -49 1 -109.5t1 -124t1 -117.5t1 -91t2 -43q0 -10 4 -37t17.5 -54.5t41 -50t74.5 -22.5q80 0 107.5 45t27.5 117v565q0 12 -2 41t-13 58.5t-37.5 51t-76.5 21.5q-80 0 -114.5 -48t-34.5 -126v-76z" />
<glyph unicode="p" horiz-adv-x="792" d="M10 59v125.5v224.5t1 270t1 266t1 212t1 107q2 27 18.5 35t28.5 8h236q113 0 178.5 -40t99 -92.5t43 -102.5t9.5 -71q0 -41 1 -80.5t1 -78.5q0 -139 -50.5 -209t-121.5 -94q-20 -6 -57.5 -12.5t-75 -11.5t-68.5 -8t-39 -3q0 -31 -1 -97.5t-2 -139t-2 -135t-1 -83.5 q0 -37 -33 -39h-27.5h-35h-31.5h-16q-8 -1 -15 -1q-42 0 -43 50zM213 694q29 2 53 4q23 2 46.5 5.5t39.5 9.5q33 10 52.5 45t19.5 63v193q0 29 -16.5 59.5t-51.5 38.5q-18 4 -42.5 6t-47.5 2h-51z" />
<glyph unicode="q" horiz-adv-x="876" d="M6 377v77t1 116.5t2 136t2 135t1 114v70.5q0 68 21.5 131.5t62.5 112.5t98.5 78.5t131.5 29.5q80 0 143 -29.5t108.5 -79.5t70 -114.5t24.5 -134.5v-81t1 -127t1 -148.5v-147.5t-2 -123t-4 -76q-4 -41 -21.5 -77.5t-34.5 -73.5q-6 -16 -7 -26.5t9 -20.5 q12 -16 23.5 -29.5t24.5 -30.5q23 -29 19.5 -45t-34.5 -39q-23 -14 -44 -28.5t-44 -28.5q-16 -10 -30.5 -7t-24.5 19q-27 41 -53 70q-12 12 -27 8q-50 -16 -97 -16h-10q-18 0 -68 7t-104.5 44t-96.5 115t-42 219zM205 420q0 -37 8 -73t25.5 -64.5t44 -46t61.5 -17.5 t59.5 21.5t40 52.5t21.5 62.5t6 52.5v60v108.5t1 133t1 133v108.5v59q0 72 -27.5 119t-105.5 47q-51 0 -77.5 -23t-39.5 -51q-14 -33 -16 -72q-2 -143 -2 -268v-342z" />
<glyph unicode="r" horiz-adv-x="919" d="M6 53v155.5v226.5t1 254t1 239.5v185.5v90q0 43 32 61.5t60 18.5q14 0 45 1t71 1t85 -1t86 -3q63 0 127 -23.5t114 -68.5t80.5 -108.5t30.5 -143.5q0 -98 -30.5 -163.5t-70.5 -105.5t-77 -59.5t-47 -25.5q-8 -4 -20.5 -7.5t-18.5 -7.5q4 -12 22.5 -48t44 -86t54.5 -105.5 t54.5 -103.5t43 -81.5t21.5 -42.5q12 -23 10 -35t-27 -24q-33 -16 -58.5 -27.5t-59.5 -21.5q-8 -4 -25.5 -7t-34.5 31q-4 6 -22.5 42t-43 86.5t-53 108.5t-53 109.5t-42 88t-21.5 47.5q-10 18 -22.5 32.5t-53.5 10.5q0 -10 -1 -49t-1 -91.5v-111v-108.5v-85v-39 q0 -39 -10.5 -45t-32.5 -10q-4 0 -21.5 -2t-39 -2h-42t-32.5 4q-8 4 -15.5 13.5t-7.5 35.5zM209 1047q2 -47 2 -103.5v-103.5q0 -10 1 -21.5t-1 -23.5q0 -16 6 -26.5t27 -10.5q18 0 28.5 -1t19.5 -1h19.5t28.5 2q6 0 36 8t61.5 29.5t57 55.5t25.5 87t-24.5 82t-57 43 t-65.5 17t-47 3h-41t-43 -2q-33 0 -33 -34z" />
<glyph unicode="s" horiz-adv-x="831" d="M-33 1014q0 51 23.5 106.5t69.5 100.5t113 73.5t155 28.5q84 0 141 -30.5t93 -67.5t52.5 -69t18.5 -34q14 -20 12 -29.5t-22 -21.5q-31 -18 -62 -36.5t-63 -35.5q-6 -4 -18.5 -2t-12.5 7q-16 41 -53 77.5t-86 36.5t-94.5 -27.5t-45.5 -101.5q0 -37 27 -65.5t61.5 -49 t68.5 -35t50 -24.5t60.5 -41t91.5 -80t83 -116.5t36 -155.5q0 -20 -4.5 -59t-16.5 -87.5t-35.5 -99.5t-63.5 -93t-99.5 -68.5t-141.5 -26.5t-143.5 27.5t-103.5 69.5t-63.5 90t-21.5 91q-1 42 -1 84v42v42q0 42 -1 82q0 16 5.5 20.5t21.5 4.5h54.5h58t49 -2.5t26.5 -8.5 q6 -4 7.5 -21t1.5 -40v-48.5t2 -45.5q2 -12 8 -37t20.5 -48.5t38 -42t60.5 -18.5t58 18.5t33.5 48.5t15.5 68.5t3 81.5q0 55 -34.5 93.5t-86 70t-113 63.5t-112.5 76t-86 107.5t-35 157.5z" />
<glyph unicode="t" horiz-adv-x="874" d="M-27 1237q-4 27 16.5 38t35.5 11h630q27 0 44.5 -3t17.5 -19v-29t-1 -53.5t-1 -55v-32.5q0 -16 -17.5 -19.5t-54.5 -3.5h-170q-4 0 -9 -4t-5 -10q0 -31 -1 -112t-1 -185.5v-219v-213t1 -167t1 -80.5v-13q-1 -39 -11 -51q-12 -14 -59 -16q-23 -2 -53.5 -2h-52.5 q-25 0 -33 12.5t-8 36.5v89t-1 180.5t-1 225.5t-1 226t-1 185v100q0 18 -8.5 22t-22.5 2q-23 -2 -59.5 -3t-71.5 -1t-62.5 1t-29.5 1q-4 0 -5.5 24.5t-2.5 54.5t-2 55.5t-1 27.5z" />
<glyph unicode="u" d="M14 1267.5q0 12.5 2.5 21.5t8.5 9t23.5 1t41 1t49 1.5t43.5 1.5q16 0 21.5 -8.5t5.5 -22.5v-67.5v-118v-149.5v-163v-424q6 -39 20 -67q12 -27 36 -47.5t65 -20.5t63.5 17.5t32.5 41t13 48t5 40.5q2 20 2 95v174.5v209t-1 203t-2 155t-1 63.5q-2 20 6.5 29t18.5 14 q10 4 25 2h114q12 -2 21 -9q8 -4 14 -13t6 -23q0 -23 1 -99t1 -179t1 -218t1 -214t-1 -168t-1 -79q-4 -43 -22.5 -99t-54 -105.5t-91 -83t-135.5 -33.5q-92 0 -154.5 32.5t-101.5 78.5t-56.5 95.5t-17.5 83.5v82v163v206v211v178v107q0 8 -1 21t-1 25.5z" />
<glyph unicode="v" horiz-adv-x="892" d="M-57 1208q-8 25 16 31q35 12 69.5 24.5t69.5 22.5q23 6 36 -5t18 -30q6 -25 22 -82t34.5 -129.5t39 -151.5t39 -147.5t31 -117t14.5 -58.5q2 -4 6 -16h8q4 10 18.5 61.5t34 124t43 156.5t44 159.5t36 133t21.5 76.5q6 27 30 20q39 -8 76 -16.5t74 -16.5q33 -8 22 -43 q-10 -37 -33.5 -129t-54 -213t-64.5 -254t-63.5 -249.5t-50 -201.5t-26.5 -110q-2 -6 -6.5 -13t-10.5 -9q-34 -12 -66 -12q0 1 -2 1h-4q-32 0 -65 -10q-35 -10 -45 29q-10 37 -33.5 131t-56.5 216t-69 257t-66.5 254t-54 206t-31.5 111z" />
<glyph unicode="w" horiz-adv-x="1214" d="M-43 1190q-2 29 23 35q70 23 137 37q35 10 43 -29q6 -37 16 -105.5t23.5 -152.5t28 -171t25.5 -159t19.5 -120t8.5 -52q0 -12 4 -8q2 2 4 6q29 92 55 178q23 74 48.5 153t43.5 136q0 4 13 8l12 4q45 4 82 4q31 0 57.5 -2t30.5 -12q2 -6 10 -38t19.5 -76t23.5 -93 t22.5 -92t18.5 -71.5t8 -32.5q2 -10 6 -7q2 2 2 7q33 199 58 360q10 68 20 135.5t19.5 122.5t15.5 93t8 48q2 4 4 9.5t13 9.5q4 2 34.5 0t65.5 -5t63.5 -7.5t32.5 -10.5q2 -2 -5 -57t-20.5 -143t-31 -201t-35.5 -229.5t-35.5 -230.5t-33 -204t-25.5 -147t-12 -64 q-4 -6 -13.5 -11t-19.5 -5q-31 -3 -62 -3h-15h-25q-26 0 -52 -1q-43 0 -51 37q-10 39 -29.5 112.5t-38 148.5t-32 131t-13.5 60q-2 6 -5 1t-7 -15q0 -4 -16.5 -49t-38 -106.5t-42 -125t-32.5 -100.5q-4 -18 -13.5 -39.5t-25.5 -36.5q-8 -10 -32.5 -12t-52.5 -2t-51.5 2 t-29.5 2q-14 0 -26.5 14.5t-16.5 32.5q-6 33 -20.5 124t-34 211t-39.5 251t-38.5 246.5t-31 199.5t-16.5 107z" />
<glyph unicode="x" horiz-adv-x="874" d="M-82 51q-10 25 4 53q23 49 64 136.5t84 178.5t79.5 165.5t49.5 99.5q16 27 2 59q-59 109 -115.5 216.5t-116.5 218.5q-12 23 11 34q31 20 62.5 40t61.5 42q29 20 48 -10q10 -18 37.5 -71.5t56 -111t52.5 -101.5t28 -44q2 0 22.5 39t45 90.5t49 102.5t36.5 78q16 29 51 22 q10 -2 29 -8l38 -12t34.5 -11.5t19.5 -5.5q23 -8 27 -17t-6 -32q-51 -111 -101.5 -222.5t-103.5 -223.5q-8 -18 -8 -36t8 -36q20 -43 61 -126t82 -170t77 -160.5t48 -98.5q4 -10 3 -22.5t-7 -20.5q-25 -33 -58.5 -52.5t-70.5 -33.5q-10 -2 -23.5 4t-17.5 14q-18 33 -41.5 81 t-48.5 99.5t-50.5 101.5t-45 91t-31.5 65.5t-14 24.5t-19.5 -34.5t-42 -87t-53.5 -113t-53.5 -112.5t-41 -88t-16.5 -38q-8 -23 -21 -25.5t-32 3.5q-25 8 -48 15t-46 15q-29 10 -39 35z" />
<glyph unicode="y" horiz-adv-x="874" d="M-43 1201q4 13 35 30q27 16 53.5 29.5t52.5 29.5q20 8 35 -10q25 -45 61.5 -115.5t71.5 -137t62.5 -115t31.5 -48.5q2 0 17.5 25.5t36 63.5t45 85t46 89t39 74t23.5 42q4 6 14.5 11.5t14.5 2.5q35 -12 69.5 -25t69.5 -28q29 -10 13 -39q-18 -35 -55.5 -105.5t-78.5 -148 t-77.5 -145.5t-53.5 -94q-28 -47 -28 -109v-93q0 -50 -1 -104.5t-2 -107.5t-2 -95t-1 -68.5v-28.5q2 -35 -16.5 -49.5t-33.5 -14.5h-104q-23 0 -38 12.5t-15 40.5v85.5v134t1 139t3 102.5v8q0 116 -58 215q-25 43 -60.5 111t-69 133.5t-59.5 115.5t-30 58q-16 31 -12 44z " />
<glyph unicode="z" horiz-adv-x="897" d="M5 112.5q-1 34.5 3 63.5q0 4 20.5 45t52.5 105.5t73 144.5t84 164q98 195 225 440q4 2 4 6q0 6 -8 6h-402q-16 4 -24 13.5t-13 19.5q-4 10 -4 25v43v36.5t2 35.5q2 27 33 26q14 -2 63.5 -2h116t140 1t138 2t109 1h50.5q18 0 37.5 -8t19.5 -31v-63.5t-2 -69.5 q-2 -10 -8 -19.5t-13 -19.5q-12 -25 -50 -98.5t-88 -169.5t-103 -201.5t-99 -194.5t-74 -147q-27 -55 -26 -60q0 -5 49 -5h111.5t129 1t101.5 1q43 0 43 -41q-1 -22 -1 -43v-21q1 -32 1 -65q-2 -23 -15 -30t-34 -7h-54h-104.5h-130h-132t-110.5 1t-65 1q-29 0 -37 10t-8 39 q0 31 -1 65.5z" />
<glyph unicode="&#xab;" horiz-adv-x="985" d="M-25.5 566.5q1.5 9.5 13.5 21.5q2 2 21.5 25.5t49 56t64.5 72.5t66.5 78t58 68t41.5 44q18 20 43 2q25 -20 49.5 -40t50.5 -38q23 -16 24 -28.5t-18 -32.5q-18 -18 -43.5 -47t-53.5 -59t-52.5 -56.5t-40.5 -42.5q-12 -14 -9 -21.5t7 -11.5q57 -68 116 -129l111 -117 q25 -29 23 -44t-31 -38q-16 -14 -32.5 -26.5t-31.5 -28.5q-23 -23 -44 -19.5t-38 21.5q-35 39 -70.5 78t-70.5 78q-18 20 -48 51t-59.5 61.5t-51 54t-25.5 27.5q-2 2 -8 8.5t-9.5 14.5t-2 17.5zM368 574.5q-1 13.5 29 46.5q10 8 34 32.5t54.5 56t63.5 65.5t61.5 62.5t47 48 t20.5 21.5q6 6 12 6t8 -2q14 -10 33 -24.5t37 -27.5t32.5 -24.5t18.5 -13.5q18 -12 20.5 -21t-14.5 -26q-18 -18 -41.5 -42.5t-48 -51.5t-48 -51.5t-42.5 -42.5q-4 -4 -15 -14.5t5 -26.5q8 -8 39 -42t67.5 -74t67.5 -76t39 -46q25 -39 -19 -65q-20 -12 -36.5 -27.5 t-34.5 -30.5q-45 -33 -80 11q-23 27 -70 83t-96 113.5t-88 102.5t-45 53q-10 14 -11 27.5z" />
<glyph unicode="&#xad;" horiz-adv-x="468" d="M-78 592v28.5t1 44t1 44v30.5q0 27 25 27h303q16 0 29.5 -10.5t9.5 -38.5q0 -8 -1 -25.5t-2 -36t-2 -36t-3 -23.5q-6 -33 -47 -33q-12 0 -56.5 1t-93.5 1h-89h-46q-10 0 -19.5 6.5t-9.5 20.5z" />
<glyph unicode="&#xbb;" horiz-adv-x="874" d="M18 295q41 53 87.5 108.5t87.5 104.5q16 20 2 41q-37 51 -74 101t-72 102q-18 18 -13 26.5t9 12.5q35 27 65.5 51t63.5 47q16 16 33 -4q23 -31 61.5 -84t77.5 -104.5t68.5 -90.5t31.5 -41q6 -4 11.5 -14t-4.5 -21q-10 -12 -44 -58t-76 -103.5t-82 -110.5t-61 -80 q-27 -31 -40 -31t-44 29q-16 16 -38.5 33.5t-40.5 34.5q-31 23 -9 51zM350.5 216q-4.5 20 7.5 36q23 35 57 81t64.5 87t52.5 70l23 28q12 16 17.5 25.5t5.5 17.5t-5.5 17.5t-15.5 25.5t-32.5 45t-46 58.5t-44 55t-26.5 36.5q-10 14 -6 23t8 14q2 2 16 13t33.5 24.5t40 27.5 t32.5 23q27 16 46 -9q8 -14 41.5 -59t70.5 -95t66.5 -92t34.5 -51q4 -10 14 -24t10 -25q0 -12 -6 -25.5t-16 -27.5q-23 -31 -61 -87t-78 -115.5t-73.5 -108.5t-45.5 -64q-20 -29 -36 -28.5t-44 20.5q-43 31 -84 53q-16 10 -20.5 30z" />
<glyph unicode="&#x401;" horiz-adv-x="806" d="M4 1282q0 33 29 33h577q8 0 9.5 -30t-4 -64.5t-14.5 -66.5t-19 -34q-16 -4 -64.5 -5t-102 -2t-100.5 0t-59 1q-23 2 -32 -7t-7 -34q0 -55 1 -111.5t1 -111.5q0 -29 29 -29q14 2 47 2h69.5t68.5 -1t46 -1q25 0 30 -18.5t5 -32.5q2 -29 -1 -51.5t-7 -50.5 q-2 -8 -10.5 -17.5t-16.5 -11.5q-33 -6 -69.5 -8t-72.5 -3t-66 0t-48 1q-2 -8 -2 -55.5t1 -109t2 -126t3 -105.5q0 -29 31 -28h330q18 0 27.5 -20.5t9.5 -43.5q2 -23 0 -44t-2 -44q0 -43 -48 -49q-18 -2 -60 -3t-95 -2t-111.5 -1t-111 1t-91 2t-53.5 3q-37 4 -37 43 q0 25 -1 125t-2 236.5t-3 288t-3 280.5t-2 215t-1 90zM72 1516q-2 39 6 49t51 12q27 0 53.5 -1t53.5 1q23 2 28.5 -4t5.5 -27q2 -29 3 -54.5t3 -53.5q0 -20 -10 -41q-4 -6 -12 -12.5t-16 -6.5q-31 0 -63 -2t-62 2q-35 4 -37 37q-2 23 -3 48.5t-1 52.5zM349 1473.5 q-3 31.5 1 62.5q4 35 37 37q23 2 52.5 3t56.5 3q39 0 46 -7t9 -50q0 -29 -2 -54.5t2 -54.5q2 -20 -4 -26.5t-27 -8.5q-29 0 -54.5 -2t-53.5 -2q-27 0 -41 10q-6 4 -12.5 11.5t-6.5 15.5q0 31 -3 62.5z" />
<glyph unicode="&#x410;" horiz-adv-x="894" d="M-51 68l15 60t34.5 133t47.5 182.5t53.5 208t55 210t49 189.5t37 145.5t19.5 77.5h43t69 -1t63.5 -4t29.5 -9q6 -16 19.5 -73t32 -137.5t40 -178t44 -199t44 -198.5t39.5 -176t29.5 -132t15.5 -66q10 -41 2 -59t-49 -33q-41 -14 -84 -24q-29 -8 -40 0t-17 34 q-10 53 -22.5 104.5t-22.5 104.5q-6 23 -31 23q-53 0 -112.5 -1t-114.5 -1q-8 0 -16.5 -7.5t-12.5 -15.5q-4 -10 -11.5 -35.5t-14.5 -53t-12 -50.5t-7 -27q-16 -41 -38 -51t-63 -2q-20 4 -39.5 6t-39.5 6q-47 6 -35 50zM268 467q-6 -25 17 -25q29 0 63.5 1t63.5 3 q29 0 33 8.5t-1 34.5q-6 25 -12 62t-12 77t-12.5 76.5t-10.5 61.5q-10 51 -18 73.5t-13.5 27.5t-9.5 -4t-6 -19q-10 -37 -20.5 -86t-20.5 -101.5t-20 -102.5t-21 -87z" />
<glyph unicode="&#x411;" horiz-adv-x="886" d="M4 878.5v199.5v147.5t2 68.5q2 4 9.5 10.5t13.5 8.5q25 0 73 1t105 1h117.5t111.5 -1t86 -1h41q8 0 6 -32t-12 -69.5t-25.5 -69.5t-33.5 -32t-62.5 1t-92.5 1h-87t-45 -2t-13.5 -9t-7.5 -14q2 -43 1 -103t4 -103q0 -25 28 -25q8 0 49 2t96.5 -3t114 -24.5t101.5 -62.5 q14 -16 32.5 -36.5t36 -47.5t28.5 -56.5t13 -60.5q2 -39 4 -63.5t2 -46v-46v-63.5q0 -53 -17 -116.5t-56 -119t-103.5 -92t-156.5 -36.5q-16 0 -66.5 1t-107 1t-103.5 1t-55 1q-27 0 -27 41v60t-1 141t-1 198t-1 225.5t-1 225zM201 621q0 -16 1 -68.5t2 -115t2 -126 t1 -104.5q0 -16 14 -23q6 -4 15 -6q20 -2 40 -2h72q45 0 75 30t47 71.5t23.5 85t6.5 67.5q0 18 -6.5 55t-24.5 74t-52 64.5t-89 27.5h-50.5t-50.5 -2q-27 0 -26 -28z" />
<glyph unicode="&#x412;" horiz-adv-x="874" d="M8 651v233.5v207t1 152t3 69.5q0 4 8.5 10t14.5 8q76 4 149.5 2t149.5 -2q57 0 106 -14t90 -60q37 -35 54.5 -79.5t23.5 -89t4 -83t-6 -61.5q-4 -18 -11 -34.5t-15 -32.5q-4 -8 -10.5 -13.5t-7.5 -9.5t4 -11t24 -20q16 -12 34.5 -36.5t33 -55.5t24.5 -64.5t12 -64.5 q6 -78 9.5 -154.5t1.5 -154.5q0 -145 -111 -246q-33 -29 -72 -43t-80 -18q-18 -2 -79.5 -5.5t-129 -6.5t-124 -3t-68.5 4q-10 4 -16.5 17.5t-10.5 23.5q0 2 -1 57.5t-2 144.5t-2 201.5t-1 231.5zM197 1106q2 -43 1 -85t3 -85q0 -29 28 -25q20 2 40 1t38 3q41 10 62.5 31 t27.5 47.5t-2 55t-26 57.5q-18 27 -45 26t-50 3q-16 -2 -29.5 -2t-29.5 -5q-6 -2 -12 -9t-6 -13zM207 674q2 -35 3 -70t3 -69v-164t-2 -164q0 -31 31 -29t61.5 0t61.5 0q41 4 70.5 33t39.5 68q4 18 11.5 59t8.5 92t-8 105.5t-38 97.5q-16 29 -43 49t-62 25q-29 2 -55.5 0 t-55.5 -5q-27 0 -26 -28z" />
<glyph unicode="&#x413;" horiz-adv-x="747" d="M6 1075v131.5v55.5q0 18 9.5 34.5t25.5 16.5h38h79h100h101.5t84 -1t45.5 -1q31 -2 42.5 -10.5t11.5 -12.5q6 -39 5 -88t-18 -84q-4 -8 -14 -7t-20 1q-29 -2 -76 -2h-93t-81 -1t-41 -1q-2 -27 -2 -107.5t-1 -189.5t-1 -230.5v-230t1 -189.5t1 -106q0 -41 -9.5 -52 t-50.5 -15q-29 -4 -58.5 -5t-55.5 19q-16 12 -19 27v89v153t-1 196.5t-1 216.5t-1 211t-1 182z" />
<glyph unicode="&#x414;" horiz-adv-x="978" d="M-72 51q4 29 1 62.5t1 62.5q6 35 39 33q20 0 40 1t40 1q25 0 23 22q-2 39 -2 120t-1 182.5t-1 212t-1 208t-2.5 170t-1.5 99.5q0 33 10.5 43t43.5 14h50h99.5h123t122.5 -1t98.5 -2t51.5 -3q4 0 9 -7t5 -12q-2 -29 -3 -105.5t-1 -177v-212t1 -210.5t2 -175t3 -103 q2 -29 8 -33.5t35 -4.5h39.5t38.5 -3q16 -2 27.5 -8t9.5 -28q-2 -35 -2 -79t-5 -79q-2 -20 -16 -26.5t-33 -8.5h-70.5t-141.5 -1t-179 -1h-183t-152.5 -1t-88.5 -3t-31 9t-6 44zM279 1057q2 -14 3 -26.5t1 -26.5q0 -25 1 -87.5t1 -144.5v-172t1 -168t1 -133v-68q0 -4 5 -11 t9 -7h77t77 2q23 0 22 27q-2 14 -2 70.5t-1 135t-1 170t-1 176.5t-2 154.5t-3 106.5q0 25 -23 24h-71.5t-71.5 2q-23 0 -22 -24z" />
<glyph unicode="&#x415;" horiz-adv-x="851" d="M6 1253q0 37 33 37h95.5t154.5 1t163.5 2t122.5 1q84 4 72 -80q-4 -16 -4 -33.5v-33.5q2 -20 -12.5 -35.5t-36.5 -15.5q-4 0 -31.5 -1t-66.5 -2t-85 -2t-85 -2.5t-68 -3.5t-35 -2q-4 -2 -11 -9t-7 -11q2 -41 3 -80t5 -80q0 -4 7 -10t11 -6q31 0 65 1t65.5 2t59.5 1h46 q37 0 50 -14.5t15 -42.5q0 -23 1.5 -45.5t-1.5 -45.5q-6 -41 -65 -45q-51 -4 -106.5 -1t-106.5 -1q-25 -2 -30 -9t-5 -32q2 -43 2 -108.5v-128v-111.5t2 -57q2 -6 9.5 -12.5t13.5 -6.5q43 -2 105.5 -1t121.5 1h139q16 -2 33 -1t23 -27q2 -8 3 -29.5t1 -46.5t-1 -47.5 t-1 -30.5q0 -16 -11.5 -29.5t-29.5 -15.5h-58.5h-108h-130h-127h-99h-45.5q-20 0 -33.5 14.5t-15.5 34.5q-2 25 -2 119t-1 221t-1 271.5v269.5t-1 214t-1 105z" />
<glyph unicode="&#x416;" horiz-adv-x="1130" d="M8 63v118t1 152t2 139.5t1 78.5q0 131 99 233q10 10 28.5 21.5t18.5 19.5q0 4 -8.5 12.5t-20.5 18.5t-25.5 21.5t-21.5 19.5q-31 33 -45 88t-20.5 111.5t-5.5 101.5t1 55t-1 16.5t5.5 9.5t22.5 4t51 1q23 0 44.5 -1t43.5 -1q27 2 29 -25l12 -141q4 -35 13.5 -66.5 t39.5 -56.5q12 -10 33 -20t40.5 -16.5t32.5 -8.5t13 4v342q0 8 19.5 12.5t48 4.5t58.5 -2t52 -2q6 0 14.5 -8.5t8.5 -14.5v-340q0 -10 28.5 -8t64.5 21.5t64.5 56.5t28.5 96q0 35 -1 77t-1 91h150q18 0 29.5 -2t16.5 -7t7 -15.5t2 -30.5q2 -47 4 -92.5t-8 -90.5 q-12 -59 -37 -113.5t-84 -86.5q-14 -8 -9 -14.5t9 -14.5q20 -27 38.5 -52.5t35.5 -53.5q20 -37 25.5 -78t2.5 -82v-61.5t-1 -98.5t0 -115.5t0 -113t-1 -89v-44.5q0 -6 -4 -13.5t-8 -7.5q-12 -2 -33.5 -2h-44h-41h-20.5q-18 0 -28.5 2t-14.5 10t-5 24.5t-1 45.5 q0 31 -1 101.5t-1 150.5t-1 151.5t-3 106.5q-4 41 -30 71.5t-65 49.5q-43 20 -54 17t-11 -54q0 -39 1 -98.5t1 -126t1 -134t1 -126v-100.5v-56q0 -27 -16.5 -33t-32.5 -6t-39 -1t-55 3q-29 4 -41.5 16.5t-14.5 40.5q-2 14 -2 69.5t-1 130.5t-2 157t-1 151.5v116.5v49 q0 8 -23.5 -2t-52 -32.5t-56.5 -53.5t-34 -63q-6 -29 -9 -93.5t-4 -135t0 -134t1 -90.5q-2 -23 -1 -43.5t-1 -42.5q-2 -29 -17.5 -36t-37.5 -7h-111q-25 0 -29 16.5t-6 50.5z" />
<glyph unicode="&#x417;" horiz-adv-x="958" d="M-37 387q0 16 14.5 32.5t30.5 26.5q29 16 61.5 28.5t65.5 23.5q4 4 13.5 1t11.5 -7t5 -29t9 -57.5t13.5 -65.5t15.5 -49q23 -43 67.5 -79t102.5 -40q63 -2 107 34t67.5 91t24.5 119.5t-20.5 121t-66.5 94.5t-114 40q-41 2 -76 2h-47q-10 0 -13.5 28.5t-1 63.5t8.5 63.5 t16 28.5t35.5 3t56.5 10.5t62.5 18.5t54.5 25q18 12 36.5 50.5t20.5 66.5q2 59 -16.5 91t-48 42.5t-67.5 3t-77 -27t-75.5 -48t-63.5 -59.5q-16 -18 -35.5 -25t-29.5 3q-6 6 -18.5 27.5t-25 48t-21.5 49t-9 30.5t32.5 40t87 66t126 60.5t151.5 24.5q70 -2 125 -27.5 t93 -65.5t58.5 -90.5t18.5 -103.5t-14.5 -98t-26.5 -79t-27.5 -55.5t-15.5 -23.5q-4 -6 -9 -9t-7 -6t1 -8.5t15 -13.5q66 -47 109 -141t39 -248q-4 -150 -52.5 -238t-115 -132t-138 -56t-120.5 -10q-117 2 -194 54t-124 122t-66.5 142.5t-19.5 115.5z" />
<glyph unicode="&#x418;" horiz-adv-x="960" d="M6 1056q0 81 1 134t1 61q4 29 16.5 40.5t41.5 15.5q29 2 60.5 2t59.5 -4q6 -2 13.5 -15.5t5.5 -23.5v-62.5t-1 -125t-1 -157.5v-162v-133.5v-74.5v-26.5t6 -20.5t20.5 32.5t24.5 57.5q8 18 31.5 76.5t53.5 134.5t62.5 161t60 155.5t46 119.5t20.5 53q2 6 24.5 8.5 t52.5 2.5t58.5 -1t41.5 1q16 2 24 -4.5t8 -24.5v-66.5v-147.5v-199.5v-225.5v-224.5v-195.5v-140v-59q0 -8 -20.5 -11t-48 -3t-53 1t-33.5 1q-33 2 -36 17.5t-5 64.5q0 66 -1 151t-1 174t-1 174t-1 150q0 4 -2.5 11.5t-6.5 7.5t-11 -17.5t-11 -29.5q-6 -16 -29.5 -73.5 t-56.5 -134.5t-70 -163t-68.5 -159t-55 -122t-29.5 -51q-8 -4 -31 -5t-47.5 0t-46 3t-27.5 4q-33 8 -33 43q0 14 -1 71.5t-1 141.5t-1 187.5t-1 211t-1 210t-1 183.5z" />
<glyph unicode="&#x419;" horiz-adv-x="1024" d="M6 684v215.5v186v134v56.5q2 6 9.5 14t13.5 10q41 4 84 3.5t84 -0.5q6 0 15 -8.5t11 -14.5t3 -63.5t1 -140.5v-180v-185v-152.5v-83.5v-14t9 -10q2 0 19 33.5t44 90t60.5 128t68.5 146.5t68.5 146.5t60.5 128t42 90.5l15 35q12 33 20.5 38t45.5 5q29 0 54.5 -1t51.5 3 q29 2 40.5 -5t11.5 -36q2 -53 1 -104t-1 -105v-105.5v-195t1 -238.5t1 -233.5v-180.5v-79q0 -10 -35 -16t-76 -6t-76 6t-35 22v114v139.5t-1 145t-1 131t-1 96.5t-1 42v4t-1 7t-3 2t-6 -11q-4 -6 -29.5 -56t-63.5 -121t-81 -154t-81 -153.5t-65.5 -120.5t-31.5 -56 q-18 -18 -37 -21q-23 -4 -50.5 -5t-55 0t-49 2t-29.5 1q-14 0 -17.5 9.5t-3.5 17.5q0 20 -1 82.5t-1 152.5t-1 198.5t-1 219.5zM322 1509q0 20 10 41q4 6 12 12.5t16 4.5q33 0 64 2t63 -2q33 -4 35 -39v-52.5t2 -56.5q0 -39 -8 -46t-51 -7q-29 0 -54.5 1t-52.5 -1 q-23 -2 -28.5 4t-5.5 27q0 29 -1 56.5t-1 55.5z" />
<glyph unicode="&#x41a;" horiz-adv-x="841" d="M8 23v1241q0 18 4 27t25 9q37 0 79 1.5t77 3.5q31 0 28 -31v-89.5t1 -119.5t2 -112.5t1 -65.5q0 -10 31 -10t67.5 18t67.5 58t31 108q0 16 -1 54t-1 77v68.5v31.5q2 2 18.5 2h39h47h42.5q41 0 47.5 -7t8.5 -46v-59.5v-73.5t-1 -69.5t-1 -47.5q-2 -16 -8.5 -41.5 t-18.5 -53.5t-31.5 -54.5t-50.5 -42.5q-14 -8 -12 -16.5t12 -12.5q35 -20 58.5 -49t39.5 -57q20 -37 26.5 -78t2.5 -82v-58t-1 -91.5t0 -106.5t0 -102.5t-1 -81v-41.5q0 -6 -4 -13.5t-8 -7.5q-12 -2 -34 -2h-44.5h-41h-20.5q-18 0 -28.5 2t-14.5 10t-5 24.5t-1 45.5 q0 31 -1 94.5t-1 136t-1 138t-3 100.5q-6 53 -40 85t-75 42q-14 2 -30.5 6t-29.5 1t-21.5 -15.5t-8.5 -38.5q0 -29 -1 -80t-2 -113.5t-1 -128t-1 -122t-1 -99.5v-57q0 -16 -9 -22.5t-22 -8.5q-12 0 -37.5 -2t-53 -2t-51 1t-32.5 5q-4 2 -5 8t-1 13z" />
<glyph unicode="&#x41b;" horiz-adv-x="894" d="M-76 86q4 16 26.5 105.5t55.5 216.5t70 271t68.5 269t54 211t26.5 98q4 10 13.5 20.5t19.5 12.5t31.5 3t45 2t44 1h29.5q6 0 13 -5t9 -9q6 -16 21.5 -72.5t38 -138.5t49 -180t54.5 -200.5t54.5 -200t47 -176t34.5 -131t16 -62.5q4 -16 6.5 -35.5t4.5 -36.5q0 -4 -5.5 -9 t-9.5 -9q-25 -10 -49 -19.5t-51 -15.5q-39 -10 -65.5 7t-36.5 58q-6 20 -18.5 70.5t-30 115t-36 136.5t-36 137.5t-31.5 117.5t-20 77q-8 29 -14.5 57.5t-14.5 58.5q-4 20 -9 14.5t-10.5 -24t-10.5 -41.5t-7 -35q-4 -18 -16.5 -68t-29.5 -115.5t-35.5 -139.5t-36 -141.5 t-32 -122t-20.5 -80.5q-6 -29 -11 -44.5t-14.5 -22.5t-24.5 -7h-46q-25 0 -46.5 4t-41.5 21q-33 23 -23 57z" />
<glyph unicode="&#x41c;" horiz-adv-x="1193" d="M-18 82q2 16 10 102t18 209t21.5 265.5t21.5 268.5t17.5 219t9.5 120q0 29 29 28h48.5h55.5h45.5h22.5q2 0 17 -40t37.5 -101t47.5 -133t46.5 -135.5t36.5 -109.5t17 -52q6 -23 12.5 -27t14.5 19q4 12 24.5 75.5t48 149.5t57.5 180t52 166q2 8 19 17q8 4 14 6h176l12 -4 q4 -4 9.5 -7.5t5.5 -11.5q4 -31 11 -102.5t16.5 -165.5t20.5 -205t22.5 -221.5t21.5 -214t18.5 -183t12.5 -130t4 -52.5q0 -6 -15.5 -11t-37 -9t-45 -7t-39.5 -5q-41 -4 -54.5 9t-17.5 54q-2 23 -8.5 75t-14.5 119.5t-18 143.5t-19.5 147.5t-17.5 130t-14 93.5 q-4 18 -9.5 15t-9.5 -17q-12 -41 -34.5 -115t-45 -147.5t-40 -131t-19.5 -65.5q-4 -6 -8 -13.5t-8 -9.5q-37 -10 -62.5 -11t-64.5 5q-23 4 -33 17.5t-19 33.5q-35 106 -74.5 212t-74.5 210l-2 7q-2 6 -4 8t-5 -4.5t-3 -26.5q-2 -20 -5.5 -72.5t-8.5 -120t-11 -143.5 t-11 -145.5t-10.5 -125t-7.5 -83.5q-4 -25 -26 -25q-29 -2 -59.5 -4t-59.5 0q-29 4 -47.5 21.5t-9.5 60.5z" />
<glyph unicode="&#x41d;" horiz-adv-x="927" d="M4 80v68.5v135.5v181v204.5v205v182.5v137v70v14t6 14q2 2 30 3t60.5 1t62.5 -1t40 -1q4 -2 11 -6t7 -8q2 -29 3 -90.5t1 -128t-1 -127t-1 -86.5q-4 -27 21 -25q59 4 112.5 1t112.5 1q2 0 14 4q0 14 1 70.5t2 124.5t2 134.5t1 105.5q0 29 31 28q41 2 90 1t90 3 q16 2 24.5 -4t6.5 -26q-2 -27 -3 -92.5t-2 -153.5t-1 -192.5t-1 -210t-2 -206t-1 -179t-1 -130t-1 -59.5q-4 -29 -12.5 -39t-36.5 -14q-33 -4 -73 -5t-73 -1q-23 0 -34 17t-9 46q2 25 2 95.5v154.5v166t2 125q0 12 -4 18t-20 8h-107.5t-107.5 2q-25 0 -25 -26 q-2 -111 -3 -220.5t-3 -219.5q0 -16 1 -39t0 -43.5t-5 -36t-14 -15.5q-6 0 -24.5 -1t-42.5 -1h-47.5t-41.5 2q-31 4 -33 18.5t-4 45.5z" />
<glyph unicode="&#x41e;" horiz-adv-x="894" d="M-13 831.5q-1 67.5 0 117t3 61.5q8 37 25.5 95t57.5 113.5t112.5 94.5t193.5 39q100 0 162.5 -42t97.5 -97.5t46 -112t11 -84.5q0 -23 1 -78t1 -126t1 -150.5t1 -150.5v-126v-78q0 -35 -19 -95t-62.5 -119.5t-111 -102.5t-163.5 -43q-90 0 -150.5 25.5t-99.5 66.5 t-59.5 89t-29.5 93t-10 82t-1 51t-1 65.5t-2 121t-2 146.5t-2 144.5zM209 336q0 -61 25.5 -92t84.5 -43q25 -4 49.5 2t45 19.5t35 33.5t16.5 43t4 79t4 128t3 149.5t1 143t-1 112t-1 52.5q-4 35 -12 67.5t-33 61.5q-20 25 -46 35t-51.5 6.5t-48 -17.5t-36.5 -41 q-29 -51 -35 -106q-2 -14 -3 -55.5t-1 -98.5v-124.5v-133v-124v-97.5z" />
<glyph unicode="&#x41f;" horiz-adv-x="880" d="M14 55v92t1 196t2 252t1 259t-1 217t-1 127q0 6 -1 20.5t1 30t8.5 26.5t22.5 11q8 0 54 1t110.5 1t138.5 1t138.5 2t110.5 1h56q12 -2 16.5 -22.5t4.5 -24.5q0 -14 -1 -68.5t-1 -134v-179v-203v-205t-1 -187.5t-1 -147.5v-85.5q0 -37 -12.5 -48.5t-49.5 -6.5h-55.5 t-54.5 2q-29 4 -39 15t-10 40v86v173v218v223.5t1 189t1 115.5q0 31 -27 31q-43 -4 -93 -1t-93 -1q-4 0 -10.5 -9t-6.5 -15v-94.5v-187t-1 -231t-1 -229t-1 -180.5t-1 -82q-2 -6 -6 -13t-10 -12q-72 -27 -150 -14q-39 6 -39 51z" />
<glyph unicode="&#x420;" d="M6 1262q0 25 25 30q27 8 80 10.5t110.5 0t105.5 -4.5t64 -4q57 -4 111.5 -26.5t96.5 -59.5t69.5 -87t33.5 -109q4 -39 4.5 -96.5t0.5 -94.5q0 -55 -16.5 -110.5t-49.5 -103.5t-79 -88t-107 -64q-33 -12 -87.5 -17.5t-107.5 -9.5q-18 -2 -23.5 -9t-5.5 -24q4 -86 1 -171 t-1 -171q0 -59 -63 -51q-23 4 -51.5 2t-50.5 -2q-55 2 -56 53q0 45 -1 147.5t-1 230.5v266.5v257t-1 202.5t-1 103zM227 1047q2 -35 3 -92.5t1 -114v-101.5v-55q0 -4 5.5 -11t9.5 -9q8 -4 35.5 -7.5t61.5 2t67.5 21.5t56.5 51q27 43 33 90t6 97q0 23 -12.5 49t-31 48.5 t-43 39t-50.5 20.5q-29 4 -61 4h-50q-31 0 -31 -32z" />
<glyph unicode="&#x421;" d="M-12 346v645q0 37 9 99.5t42 123t97.5 105.5t176.5 45q92 0 152.5 -27.5t96.5 -68.5t52.5 -90.5t21.5 -92.5t4 -72.5t-1 -33.5q0 -12 -4 -28.5t-47 -16.5q-14 0 -46 -1t-46 -1q-39 0 -46.5 9t-13.5 32q-4 8 -5 39.5t-10 66.5t-27.5 61.5t-55.5 26.5q-47 0 -74.5 -22.5 t-42 -53t-17.5 -61.5t-3 -49q0 -20 -1 -68.5t-1 -111v-132v-130v-105.5v-59q0 -121 30.5 -166t89.5 -45q49 0 77 36t40.5 84t13.5 98t1 79q0 16 -1 30.5t3 30.5q0 6 7 14.5t15 8.5q35 4 79 3t79 -1q6 0 13 -7.5t7 -13.5q8 -45 7 -90t2 -90q0 -39 -15.5 -105.5t-53.5 -131 t-102.5 -111.5t-158.5 -47q-66 0 -127.5 21.5t-109.5 69.5t-77.5 123t-29.5 181z" />
<glyph unicode="&#x422;" horiz-adv-x="831" d="M-57 1219.5q0 27.5 3 51t9 29.5q8 2 58 3.5t120 1.5t148.5 1t148.5 1t119 -1t57 -1q27 -2 36 -11.5t7 -36.5t0 -52t-2 -52q-8 -53 -67 -53q-41 2 -79 -1t-79 -3q-23 0 -21 -23v-110.5v-195.5v-236.5v-232.5v-183.5v-89.5q0 -23 -22 -23q-35 -2 -69 -1t-68 -1 q-47 -4 -47 45q-2 47 -3.5 139t-2.5 203t-1 225.5t-1 210t-1 155.5v60q0 18 -2 33q-2 12 -5 22.5t-9 10.5t-31.5 -1t-58.5 -1h-66.5h-54.5q-4 0 -9 9t-5 13q0 14 -1 41t-1 54.5z" />
<glyph unicode="&#x423;" horiz-adv-x="876" d="M-58 1208.5q3 10.5 38 34.5q25 16 48 30.5t46 31.5q33 20 59 -21q6 -10 24.5 -43t44 -78t54.5 -94t54.5 -90t42 -68.5t20.5 -27.5t24.5 48t45 112.5l49 129t36.5 95.5q20 43 62 30q37 -8 74.5 -16t74.5 -16q27 -4 15 -27q-6 -12 -38 -93t-78 -200t-100.5 -258 t-102.5 -266t-85 -224.5t-49 -131.5q-8 -31 -29 -60q-4 -4 -11 -7t-13 -3q-37 8 -75 14t-75 17q-16 4 -22 23.5t0 39.5q6 18 19.5 58t31.5 91.5t38.5 110t40 113.5t36 102t26.5 78q-10 16 -36.5 60.5t-60.5 101.5t-71 119.5t-68.5 115t-52 86t-20.5 35.5q-20 37 -17 47.5z " />
<glyph unicode="&#x424;" horiz-adv-x="1181" d="M-33 938q0 111 44 187.5t113 125.5t155 72t170 23q102 0 192 -12.5t163 -47.5t122 -100.5t71 -169.5q4 -23 6.5 -90.5t3.5 -147.5t1 -157.5v-120.5q0 -23 -13.5 -82.5t-49.5 -124t-99.5 -119.5t-163.5 -72q-16 -2 -30.5 -3t-30.5 -1q-27 0 -27 -22q2 -23 1 -52.5t1 -50.5 q2 -31 -29 -30q-41 2 -82 2t-82 2q-27 0 -26 26q0 29 -1 54.5t-3 56.5q0 4 -1 6t-1 4q-47 10 -90 19.5t-84 19.5q-47 12 -90.5 37t-73.5 61q-23 27 -35 67t-18 75q-4 18 -6.5 82.5t-3.5 147.5t-2 173t-1 162zM172 928q0 -12 1 -57.5t2 -102.5t3 -116.5t4 -102.5 q0 -27 1 -53.5t6.5 -51t18.5 -46t42 -40.5q29 -18 59.5 -30.5t67.5 -10.5q2 10 2 17.5v15.5q2 47 1 96.5t-1 96.5v283.5t-2 283.5q0 29 -27 23q-10 -2 -39.5 -11.5t-60.5 -32t-54.5 -61.5t-23.5 -100zM586 987.5q0 -67.5 1 -153.5t2 -176.5t2 -177t1 -154.5q86 -10 137 32 q18 14 27.5 28.5t15.5 32t9 40t7 53.5v49v101.5t-1 120t-1 104.5q0 37 -5 71.5t-17 65.5t-37 55.5t-65 40.5q-16 6 -38 14.5t-32 4.5q-4 0 -5 -42t-1 -109.5z" />
<glyph unicode="&#x425;" horiz-adv-x="1024" d="M-55 74.5q-2 19.5 10 42.5q6 10 27.5 52t50 98.5t62.5 121t64.5 121.5t54.5 101t32 61q10 16 12 28.5t-8 28.5q-23 39 -60.5 106.5t-75.5 134t-69 121t-39 66.5q-14 23 -7 38t24 26q14 10 32.5 24.5t36 27.5t33 23.5t25.5 10.5q8 0 35.5 -42t62.5 -102.5t73.5 -128 t69.5 -119.5q25 49 54.5 114t57 123t49 98t32.5 40q18 2 35.5 -8t35.5 -18t36 -17.5t36 -17.5q23 -10 28 -22.5t-5 -37.5q-12 -25 -43 -83t-66 -125.5t-68.5 -129t-52.5 -92.5q-10 -16 -10 -29.5t10 -29.5t36 -59t57.5 -98.5t65.5 -116t62.5 -110.5t48.5 -84l19 -34 q16 -27 23.5 -44t4.5 -31.5t-16.5 -27t-40.5 -28.5q-16 -10 -32.5 -21.5t-32.5 -21.5t-34.5 -5t-29.5 24q-10 16 -29.5 51t-45 79t-54 94t-54.5 95t-46.5 83t-30.5 56q-4 4 -6 7.5t-8 9.5q-10 -16 -40 -76t-68 -133.5t-74.5 -145t-59.5 -114.5q-12 -23 -29.5 -29t-54.5 4 q-47 16 -88 41q-16 10 -18 29.5z" />
<glyph unicode="&#x426;" horiz-adv-x="980" d="M4 1255q0 20 14.5 31.5t34.5 11.5q27 -2 64 -1t61 6q10 2 18.5 -3.5t12.5 -9.5q6 -8 10 -14l4 -991q-2 -23 0 -39q0 -14 3.5 -25.5t9.5 -11.5h33.5h60h64.5h48q29 0 29 29q-2 27 -2 99.5v167.5t-1 200.5t-1 199.5t-1 166t-1 98q0 27 -2 52.5t-4 52.5q0 25 20 24 q41 2 80 4.5t80 4.5q27 2 29 -23q0 -25 2 -106.5t4 -191t4 -233.5t3 -231.5t2 -184.5t1 -93q2 -31 31 -29q23 2 47 0t45 0q33 2 37 -33q4 -55 2 -110.5t2 -112.5q0 -10 1 -23.5t-2 -27.5t-10.5 -23.5t-23.5 -9.5q-33 0 -76 -2t-65 0q-39 6 -45 53v51q0 23 -25 25h-73 t-107.5 -1t-120.5 -1h-114.5t-89.5 1t-42 1q-23 6 -31 23.5t-12 40.5q0 10 -1 65t-2 138t-1 186.5t-1 211t-1 210v184.5t-1 135t-1 59z" />
<glyph unicode="&#x427;" horiz-adv-x="843" d="M8 1023q0 79 1 147.5t3 86.5q2 39 54 41q29 4 48 2t48 -2q16 2 31.5 -14t17.5 -35q4 -94 -1 -189t5 -190q4 -41 16.5 -80.5t51.5 -66.5q33 -20 69.5 -27.5t77.5 -9.5q2 0 3 44t1 110.5v144.5v144.5t1 112.5t3 50q4 6 37 8.5t72 2.5t69.5 -4.5t32.5 -12.5v-58v-141.5v-198 v-226v-228v-203v-152v-73.5q0 -6 -22.5 -8t-53 -1t-62.5 2t-52 1t-20.5 18.5t-0.5 42.5q0 27 1 83.5t1 117v112.5t-2 70q0 4 -9 11.5t-17 9.5q-43 8 -86 13t-84 16q-53 14 -94.5 34.5t-73.5 71.5q-27 43 -44.5 89t-19.5 97q0 20 -1 89t-1 148z" />
<glyph unicode="&#x428;" horiz-adv-x="1216" d="M6 61v128.5v225.5t1 270t1 265t1 209t1 101q2 37 64 36q18 0 53 -1t55 3q29 2 35 -26q2 -35 3 -120t2 -193.5t1 -226.5t1 -218t1 -169v-77q0 -23 21 -22q41 0 75.5 1t75.5 1q27 0 25 28q-2 47 -3 120t-2 154t-1 166v155.5v123v68.5q0 27 28 27h140q23 0 28.5 -8.5 t8.5 -34.5q0 -37 1 -101.5t1 -142.5t1 -160t2 -155.5t2 -132t3 -85.5q0 -6 7 -13t13 -9q31 -4 61.5 -1t63.5 -1q23 -2 23 24q0 25 -1 106t-1 189.5v229v224v174.5t2 81q0 8 7 17t13 9q23 0 51.5 1.5t55 1.5t47 -1.5t26.5 -7.5q2 -2 3.5 -54t2.5 -136t2 -192.5t1 -221v-222.5 v-198t-1 -144t-1 -65q-2 -23 -4.5 -35t-8.5 -18t-16 -7t-29 1q-10 0 -79.5 1t-170 1t-215 1t-214 1h-167h-71.5q-16 0 -20.5 13.5t-4.5 41.5z" />
<glyph unicode="&#x429;" horiz-adv-x="1280" d="M-2 1237q2 10 6 18q8 20 27 21q20 0 47.5 1t53.5 1t46.5 -2t26.5 -8q2 -4 3 -50.5t2 -120t0 -167.5t-2 -191.5t-1 -190.5v-166t1 -117t5 -44h25.5h46t53.5 1t49 1q4 0 9 9.5t5 15.5v81t-1 134t-1 164t-1 172t-2 155.5t-3 116.5q0 29 27 29q41 -2 80 -1t78 1q25 0 24 -23 q2 -39 3 -107.5t2 -151.5t2 -172t2 -169t1 -143.5t2 -93.5v-15q0 -6 2 -10h170q-2 270 -2 487q0 92 -1 183.5t-1 167v127v63.5q2 14 7.5 22.5t21.5 8.5q41 0 80 1t80 3q25 0 24 -25v-103.5v-184v-224v-222t1 -178.5t1 -93q0 -16 17 -25q8 -4 16 -6l70 -2q8 -2 16 -6 q14 -8 14 -21q0 -59 3.5 -114.5t1.5 -114.5q-2 -31 -8.5 -43t-34.5 -12h-131q-45 0 -46 33v63h-74.5t-155.5 1t-196.5 1h-196.5h-155.5h-73.5q-20 -2 -36.5 12.5t-16.5 36.5q0 16 -1 75.5t-2 146.5t-2 192.5t-1 212.5q-2 250 -6 559z" />
<glyph unicode="&#x42a;" horiz-adv-x="831" d="M-63 1102v147q0 25 3 37t11 16.5t21.5 3.5t33.5 -1h51h63h57.5t35.5 -2q8 0 16.5 -7.5t10.5 -15.5q8 -33 8 -78v-358q0 -4 2 -8q35 2 67.5 1t67.5 -3q80 -4 146.5 -66.5t103.5 -155t40 -200t-42 -199.5t-144.5 -152.5t-265.5 -60.5h-32.5h-44h-44h-30.5q-8 4 -18.5 19.5 t-10.5 50.5v83.5v175v223.5v226.5v186v102.5q2 18 -6 24.5t-25 6.5q-23 0 -49 -3t-26 7zM252 598q2 -37 2 -99.5v-124t1 -107.5t5 -50q10 -10 22.5 -9t20.5 1q51 0 88 30.5t56.5 78t21.5 101.5t-18.5 101t-63.5 78t-111 31q-29 0 -24 -31z" />
<glyph unicode="&#x42b;" horiz-adv-x="1130" d="M8 1068v134v53q0 23 8.5 34t30.5 14q39 4 67.5 0.5t67.5 1.5q14 0 23.5 -6.5t9.5 -24.5v-98.5v-128v-117.5v-66q-4 -29 27 -30q129 0 213 -61.5t123.5 -154t41 -201t-33.5 -200.5t-103.5 -153.5t-165.5 -61.5h-64.5t-80.5 -1t-75 -1t-44 2q-33 6 -39 39q0 8 -1 64.5 t-2 142.5t-1 194.5v219t-1 217t-1 189.5zM209 362.5q0 -45.5 1 -82t1 -51.5q0 -8 5 -16t9 -10q8 -2 42 1t71 23.5t65.5 65.5t28.5 131q0 88 -33.5 133t-73.5 63.5t-75 19.5t-37 1t-3 -26.5t-1 -67.5v-90v-94.5zM705 51q0 14 1 71.5t1 140.5t1 186.5t1 209v207t-1 181t-1 132 v60.5q-4 57 47 64h33.5h43h39h25.5q16 0 23.5 -14.5t7.5 -18.5v-104.5v-219.5v-277.5v-278.5t-1 -224t-1 -113q0 -53 -45 -59q-33 -4 -65 -2t-64 0q-23 0 -34 16.5t-11 42.5z" />
<glyph unicode="&#x42c;" horiz-adv-x="745" d="M4 641v215.5v192.5v145v74q0 35 29 37q8 0 26.5 1t39 3t39 3t28.5 1q14 0 27 -17q6 -8 10 -16v-412q14 -2 30 -2q14 -2 30 -2h32q51 0 89 -16.5t66.5 -43t48 -60t31.5 -68.5q29 -82 35 -187v-122q-6 -109 -45 -191q-16 -35 -41.5 -68.5t-63.5 -60.5t-88.5 -43t-115.5 -16 q-72 0 -106.5 1t-59.5 1t-31 20.5t-8 36.5v59.5v135.5t-1 186t-1 213zM195 228.5q0 -29.5 2 -31.5q6 -4 21 -3t28 1q6 0 28.5 7t47 30.5t44 69.5t19.5 124q0 72 -13.5 116t-33 67.5t-42 31.5t-38.5 8q-6 0 -16.5 1t-20.5 1q-25 0 -24 -22v-46v-83t-1 -99.5t-1 -97.5v-74.5z " />
<glyph unicode="&#x42d;" horiz-adv-x="864" d="M-70 193q0 8 18.5 26.5t44 42t54.5 48t51 42.5q10 10 19.5 5t17.5 -15q4 -6 14.5 -27.5t30 -45t50 -41t75.5 -17.5q57 0 88 50t44.5 113.5t15.5 121t2 73.5q-2 20 -10.5 25.5t-36.5 5.5q-14 0 -34 -1t-40 -1h-47q-6 0 -13 4q-4 4 -9 8t-5 15v32.5t-1 52t-1 52v35.5 q0 18 12 26q6 4 15 2l129 4q12 2 20 7q20 8 21 22q-2 14 -4 57t-16.5 88.5t-43.5 81t-84 35.5q-18 0 -40.5 -10t-44 -26.5t-40 -36t-26.5 -35.5q-8 -12 -20.5 -5t-18.5 17q-8 8 -22.5 27.5l-29 39t-27.5 37t-18 23.5q-23 29 0 55q63 68 147.5 104t162.5 38q82 0 145.5 -43 t108.5 -109t68.5 -144.5t23.5 -150.5q2 -82 2 -164v-164q2 -156 -31 -269.5t-87 -189t-127 -112.5t-150 -37q-80 0 -145.5 32t-111.5 73t-71 78t-25 45z" />
<glyph unicode="&#x42e;" horiz-adv-x="1173" d="M6 264v198.5v225.5t1 222.5t1 192.5t1 137t3 54q6 8 31 11.5t53.5 4.5t54 0t35.5 -3q8 -2 17.5 -6.5t9.5 -26.5q0 -8 -1 -39t-1 -74t-1 -91t0 -88t3 -66.5t6 -26.5q6 0 22.5 -1t37 -1h42t37.5 2q20 2 21 26q0 12 3 48t13.5 82.5t30.5 97.5t54 94t85 70.5t123 27.5 t124 -25.5t88 -64.5t57.5 -87t34 -93t17.5 -83t5 -54q0 -29 1 -76t1 -102.5v-115v-110.5q0 -139 -15.5 -235t-41 -158.5t-58.5 -97.5t-68.5 -51.5t-71.5 -19.5t-67 -3q-37 0 -75.5 5t-74.5 25.5t-68 63.5t-55.5 121t-37.5 194.5t-14 284.5q-2 4 -7.5 10.5t-9.5 6.5h-56.5 t-55.5 -4q-6 0 -13.5 -9.5t-7.5 -17.5q0 -45 1 -133t2 -183.5t1 -177.5v-114q0 -23 -9 -26t-19 -5q-10 -4 -35 -4t-49.5 1t-44 2t-21.5 1q-27 4 -31 10t-6 39q0 10 -1 68.5t-1 146.5zM582 399q0 -106 27.5 -158.5t90.5 -52.5q31 0 52.5 19.5t35 48.5t19.5 64.5t6 66.5v69.5 v112t-1 130t-1 126v99.5v49q0 12 -6 36.5t-18.5 51t-34 46t-52.5 19.5t-53 -16t-36.5 -41t-21.5 -52.5t-7 -51.5v-566z" />
<glyph unicode="&#x42f;" horiz-adv-x="933" d="M-14.5 64.5q-3.5 13.5 4.5 29.5q6 14 37.5 71.5t71.5 127t80 139.5t65 113q16 29 -11 39q-37 14 -76.5 33.5t-74.5 56.5t-57.5 97t-22.5 159q0 113 49 184.5t110.5 111.5t116 56t66.5 21q18 6 70.5 7t109 1t104.5 -2t58 -2q18 2 24.5 -6.5t6.5 -24.5q0 -18 1 -79.5 t1 -150v-196v-216v-212t1 -183t1 -130v-52.5q4 -49 -43 -55q-14 -2 -37 -2h-45.5t-40.5 2t-25 4q-23 8 -27.5 26.5t-4.5 39.5q0 43 1 116.5t3 146.5t3 131t1 73v14t-4 10q-12 0 -19.5 -12t-11.5 -23q-10 -18 -35.5 -62t-56.5 -98.5t-64.5 -113.5t-61.5 -108.5t-47.5 -82 t-19.5 -34.5q-33 -59 -90 -27q-16 10 -40.5 23.5t-43.5 19.5q-23 6 -26.5 19.5zM227 934q0 -55 19.5 -89t46 -53.5t54.5 -26.5t44 -7h80q35 0 35 35q0 20 1 63t1 89t-1 88.5t-1 60.5q0 12 -19.5 13t-50.5 1q-16 0 -50 -4t-69.5 -21.5t-62.5 -52.5t-27 -96z" />
<glyph unicode="&#x430;" horiz-adv-x="894" d="M-51 68l15 60t34.5 133t47.5 182.5t53.5 208t55 210t49 189.5t37 145.5t19.5 77.5h43t69 -1t63.5 -4t29.5 -9q6 -16 19.5 -73t32 -137.5t40 -178t44 -199t44 -198.5t39.5 -176t29.5 -132t15.5 -66q10 -41 2 -59t-49 -33q-41 -14 -84 -24q-29 -8 -40 0t-17 34 q-10 53 -22.5 104.5t-22.5 104.5q-6 23 -31 23q-53 0 -112.5 -1t-114.5 -1q-8 0 -16.5 -7.5t-12.5 -15.5q-4 -10 -11.5 -35.5t-14.5 -53t-12 -50.5t-7 -27q-16 -41 -38 -51t-63 -2q-20 4 -39.5 6t-39.5 6q-47 6 -35 50zM268 467q-6 -25 17 -25q29 0 63.5 1t63.5 3 q29 0 33 8.5t-1 34.5q-6 25 -12 62t-12 77t-12.5 76.5t-10.5 61.5q-10 51 -18 73.5t-13.5 27.5t-9.5 -4t-6 -19q-10 -37 -20.5 -86t-20.5 -101.5t-20 -102.5t-21 -87z" />
<glyph unicode="&#x431;" horiz-adv-x="886" d="M4 878.5v199.5v147.5t2 68.5q2 4 9.5 10.5t13.5 8.5q25 0 73 1t105 1h117.5t111.5 -1t86 -1h41q8 0 6 -32t-12 -69.5t-25.5 -69.5t-33.5 -32t-62.5 1t-92.5 1h-87t-45 -2t-13.5 -9t-7.5 -14q2 -43 1 -103t4 -103q0 -25 28 -25q8 0 49 2t96.5 -3t114 -24.5t101.5 -62.5 q14 -16 32.5 -36.5t36 -47.5t28.5 -56.5t13 -60.5q2 -39 4 -63.5t2 -46v-46v-63.5q0 -53 -17 -116.5t-56 -119t-103.5 -92t-156.5 -36.5q-16 0 -66.5 1t-107 1t-103.5 1t-55 1q-27 0 -27 41v60t-1 141t-1 198t-1 225.5t-1 225zM201 621q0 -16 1 -68.5t2 -115t2 -126 t1 -104.5q0 -16 14 -23q6 -4 15 -6q20 -2 40 -2h72q45 0 75 30t47 71.5t23.5 85t6.5 67.5q0 18 -6.5 55t-24.5 74t-52 64.5t-89 27.5h-50.5t-50.5 -2q-27 0 -26 -28z" />
<glyph unicode="&#x432;" horiz-adv-x="874" d="M8 651v233.5v207t1 152t3 69.5q0 4 8.5 10t14.5 8q76 4 149.5 2t149.5 -2q57 0 106 -14t90 -60q37 -35 54.5 -79.5t23.5 -89t4 -83t-6 -61.5q-4 -18 -11 -34.5t-15 -32.5q-4 -8 -10.5 -13.5t-7.5 -9.5t4 -11t24 -20q16 -12 34.5 -36.5t33 -55.5t24.5 -64.5t12 -64.5 q6 -78 9.5 -154.5t1.5 -154.5q0 -145 -111 -246q-33 -29 -72 -43t-80 -18q-18 -2 -79.5 -5.5t-129 -6.5t-124 -3t-68.5 4q-10 4 -16.5 17.5t-10.5 23.5q0 2 -1 57.5t-2 144.5t-2 201.5t-1 231.5zM197 1106q2 -43 1 -85t3 -85q0 -29 28 -25q20 2 40 1t38 3q41 10 62.5 31 t27.5 47.5t-2 55t-26 57.5q-18 27 -45 26t-50 3q-16 -2 -29.5 -2t-29.5 -5q-6 -2 -12 -9t-6 -13zM207 674q2 -35 3 -70t3 -69v-164t-2 -164q0 -31 31 -29t61.5 0t61.5 0q41 4 70.5 33t39.5 68q4 18 11.5 59t8.5 92t-8 105.5t-38 97.5q-16 29 -43 49t-62 25q-29 2 -55.5 0 t-55.5 -5q-27 0 -26 -28z" />
<glyph unicode="&#x433;" horiz-adv-x="747" d="M6 1075v131.5v55.5q0 18 9.5 34.5t25.5 16.5h38h79h100h101.5t84 -1t45.5 -1q31 -2 42.5 -10.5t11.5 -12.5q6 -39 5 -88t-18 -84q-4 -8 -14 -7t-20 1q-29 -2 -76 -2h-93t-81 -1t-41 -1q-2 -27 -2 -107.5t-1 -189.5t-1 -230.5v-230t1 -189.5t1 -106q0 -41 -9.5 -52 t-50.5 -15q-29 -4 -58.5 -5t-55.5 19q-16 12 -19 27v89v153t-1 196.5t-1 216.5t-1 211t-1 182z" />
<glyph unicode="&#x434;" horiz-adv-x="978" d="M-72 51q4 29 1 62.5t1 62.5q6 35 39 33q20 0 40 1t40 1q25 0 23 22q-2 39 -2 120t-1 182.5t-1 212t-1 208t-2.5 170t-1.5 99.5q0 33 10.5 43t43.5 14h50h99.5h123t122.5 -1t98.5 -2t51.5 -3q4 0 9 -7t5 -12q-2 -29 -3 -105.5t-1 -177v-212t1 -210.5t2 -175t3 -103 q2 -29 8 -33.5t35 -4.5h39.5t38.5 -3q16 -2 27.5 -8t9.5 -28q-2 -35 -2 -79t-5 -79q-2 -20 -16 -26.5t-33 -8.5h-70.5t-141.5 -1t-179 -1h-183t-152.5 -1t-88.5 -3t-31 9t-6 44zM279 1057q2 -14 3 -26.5t1 -26.5q0 -25 1 -87.5t1 -144.5v-172t1 -168t1 -133v-68q0 -4 5 -11 t9 -7h77t77 2q23 0 22 27q-2 14 -2 70.5t-1 135t-1 170t-1 176.5t-2 154.5t-3 106.5q0 25 -23 24h-71.5t-71.5 2q-23 0 -22 -24z" />
<glyph unicode="&#x435;" horiz-adv-x="851" d="M6 1253q0 37 33 37h95.5t154.5 1t163.5 2t122.5 1q84 4 72 -80q-4 -16 -4 -33.5v-33.5q2 -20 -12.5 -35.5t-36.5 -15.5q-4 0 -31.5 -1t-66.5 -2t-85 -2t-85 -2.5t-68 -3.5t-35 -2q-4 -2 -11 -9t-7 -11q2 -41 3 -80t5 -80q0 -4 7 -10t11 -6q31 0 65 1t65.5 2t59.5 1h46 q37 0 50 -14.5t15 -42.5q0 -23 1.5 -45.5t-1.5 -45.5q-6 -41 -65 -45q-51 -4 -106.5 -1t-106.5 -1q-25 -2 -30 -9t-5 -32q2 -43 2 -108.5v-128v-111.5t2 -57q2 -6 9.5 -12.5t13.5 -6.5q43 -2 105.5 -1t121.5 1h139q16 -2 33 -1t23 -27q2 -8 3 -29.5t1 -46.5t-1 -47.5 t-1 -30.5q0 -16 -11.5 -29.5t-29.5 -15.5h-58.5h-108h-130h-127h-99h-45.5q-20 0 -33.5 14.5t-15.5 34.5q-2 25 -2 119t-1 221t-1 271.5v269.5t-1 214t-1 105z" />
<glyph unicode="&#x436;" horiz-adv-x="1130" d="M8 63v118t1 152t2 139.5t1 78.5q0 131 99 233q10 10 28.5 21.5t18.5 19.5q0 4 -8.5 12.5t-20.5 18.5t-25.5 21.5t-21.5 19.5q-31 33 -45 88t-20.5 111.5t-5.5 101.5t1 55t-1 16.5t5.5 9.5t22.5 4t51 1q23 0 44.5 -1t43.5 -1q27 2 29 -25l12 -141q4 -35 13.5 -66.5 t39.5 -56.5q12 -10 33 -20t40.5 -16.5t32.5 -8.5t13 4v342q0 8 19.5 12.5t48 4.5t58.5 -2t52 -2q6 0 14.5 -8.5t8.5 -14.5v-340q0 -10 28.5 -8t64.5 21.5t64.5 56.5t28.5 96q0 35 -1 77t-1 91h150q18 0 29.5 -2t16.5 -7t7 -15.5t2 -30.5q2 -47 4 -92.5t-8 -90.5 q-12 -59 -37 -113.5t-84 -86.5q-14 -8 -9 -14.5t9 -14.5q20 -27 38.5 -52.5t35.5 -53.5q20 -37 25.5 -78t2.5 -82v-61.5t-1 -98.5t0 -115.5t0 -113t-1 -89v-44.5q0 -6 -4 -13.5t-8 -7.5q-12 -2 -33.5 -2h-44h-41h-20.5q-18 0 -28.5 2t-14.5 10t-5 24.5t-1 45.5 q0 31 -1 101.5t-1 150.5t-1 151.5t-3 106.5q-4 41 -30 71.5t-65 49.5q-43 20 -54 17t-11 -54q0 -39 1 -98.5t1 -126t1 -134t1 -126v-100.5v-56q0 -27 -16.5 -33t-32.5 -6t-39 -1t-55 3q-29 4 -41.5 16.5t-14.5 40.5q-2 14 -2 69.5t-1 130.5t-2 157t-1 151.5v116.5v49 q0 8 -23.5 -2t-52 -32.5t-56.5 -53.5t-34 -63q-6 -29 -9 -93.5t-4 -135t0 -134t1 -90.5q-2 -23 -1 -43.5t-1 -42.5q-2 -29 -17.5 -36t-37.5 -7h-111q-25 0 -29 16.5t-6 50.5z" />
<glyph unicode="&#x437;" horiz-adv-x="958" d="M-37 387q0 16 14.5 32.5t30.5 26.5q29 16 61.5 28.5t65.5 23.5q4 4 13.5 1t11.5 -7t5 -29t9 -57.5t13.5 -65.5t15.5 -49q23 -43 67.5 -79t102.5 -40q63 -2 107 34t67.5 91t24.5 119.5t-20.5 121t-66.5 94.5t-114 40q-41 2 -76 2h-47q-10 0 -13.5 28.5t-1 63.5t8.5 63.5 t16 28.5t35.5 3t56.5 10.5t62.5 18.5t54.5 25q18 12 36.5 50.5t20.5 66.5q2 59 -16.5 91t-48 42.5t-67.5 3t-77 -27t-75.5 -48t-63.5 -59.5q-16 -18 -35.5 -25t-29.5 3q-6 6 -18.5 27.5t-25 48t-21.5 49t-9 30.5t32.5 40t87 66t126 60.5t151.5 24.5q70 -2 125 -27.5 t93 -65.5t58.5 -90.5t18.5 -103.5t-14.5 -98t-26.5 -79t-27.5 -55.5t-15.5 -23.5q-4 -6 -9 -9t-7 -6t1 -8.5t15 -13.5q66 -47 109 -141t39 -248q-4 -150 -52.5 -238t-115 -132t-138 -56t-120.5 -10q-117 2 -194 54t-124 122t-66.5 142.5t-19.5 115.5z" />
<glyph unicode="&#x438;" horiz-adv-x="960" d="M6 1056q0 81 1 134t1 61q4 29 16.5 40.5t41.5 15.5q29 2 60.5 2t59.5 -4q6 -2 13.5 -15.5t5.5 -23.5v-62.5t-1 -125t-1 -157.5v-162v-133.5v-74.5v-26.5t6 -20.5t20.5 32.5t24.5 57.5q8 18 31.5 76.5t53.5 134.5t62.5 161t60 155.5t46 119.5t20.5 53q2 6 24.5 8.5 t52.5 2.5t58.5 -1t41.5 1q16 2 24 -4.5t8 -24.5v-66.5v-147.5v-199.5v-225.5v-224.5v-195.5v-140v-59q0 -8 -20.5 -11t-48 -3t-53 1t-33.5 1q-33 2 -36 17.5t-5 64.5q0 66 -1 151t-1 174t-1 174t-1 150q0 4 -2.5 11.5t-6.5 7.5t-11 -17.5t-11 -29.5q-6 -16 -29.5 -73.5 t-56.5 -134.5t-70 -163t-68.5 -159t-55 -122t-29.5 -51q-8 -4 -31 -5t-47.5 0t-46 3t-27.5 4q-33 8 -33 43q0 14 -1 71.5t-1 141.5t-1 187.5t-1 211t-1 210t-1 183.5z" />
<glyph unicode="&#x439;" horiz-adv-x="1024" d="M6 684v215.5v186v134v56.5q2 6 9.5 14t13.5 10q41 4 84 3.5t84 -0.5q6 0 15 -8.5t11 -14.5t3 -63.5t1 -140.5v-180v-185v-152.5v-83.5v-14t9 -10q2 0 19 33.5t44 90t60.5 128t68.5 146.5t68.5 146.5t60.5 128t42 90.5l15 35q12 33 20.5 38t45.5 5q29 0 54.5 -1t51.5 3 q29 2 40.5 -5t11.5 -36q2 -53 1 -104t-1 -105v-105.5v-195t1 -238.5t1 -233.5v-180.5v-79q0 -10 -35 -16t-76 -6t-76 6t-35 22v114v139.5t-1 145t-1 131t-1 96.5t-1 42v4t-1 7t-3 2t-6 -11q-4 -6 -29.5 -56t-63.5 -121t-81 -154t-81 -153.5t-65.5 -120.5t-31.5 -56 q-18 -18 -37 -21q-23 -4 -50.5 -5t-55 0t-49 2t-29.5 1q-14 0 -17.5 9.5t-3.5 17.5q0 20 -1 82.5t-1 152.5t-1 198.5t-1 219.5zM322 1509q0 20 10 41q4 6 12 12.5t16 4.5q33 0 64 2t63 -2q33 -4 35 -39v-52.5t2 -56.5q0 -39 -8 -46t-51 -7q-29 0 -54.5 1t-52.5 -1 q-23 -2 -28.5 4t-5.5 27q0 29 -1 56.5t-1 55.5z" />
<glyph unicode="&#x43a;" horiz-adv-x="841" d="M8 23v1241q0 18 4 27t25 9q37 0 79 1.5t77 3.5q31 0 28 -31v-89.5t1 -119.5t2 -112.5t1 -65.5q0 -10 31 -10t67.5 18t67.5 58t31 108q0 16 -1 54t-1 77v68.5v31.5q2 2 18.5 2h39h47h42.5q41 0 47.5 -7t8.5 -46v-59.5v-73.5t-1 -69.5t-1 -47.5q-2 -16 -8.5 -41.5 t-18.5 -53.5t-31.5 -54.5t-50.5 -42.5q-14 -8 -12 -16.5t12 -12.5q35 -20 58.5 -49t39.5 -57q20 -37 26.5 -78t2.5 -82v-58t-1 -91.5t0 -106.5t0 -102.5t-1 -81v-41.5q0 -6 -4 -13.5t-8 -7.5q-12 -2 -34 -2h-44.5h-41h-20.5q-18 0 -28.5 2t-14.5 10t-5 24.5t-1 45.5 q0 31 -1 94.5t-1 136t-1 138t-3 100.5q-6 53 -40 85t-75 42q-14 2 -30.5 6t-29.5 1t-21.5 -15.5t-8.5 -38.5q0 -29 -1 -80t-2 -113.5t-1 -128t-1 -122t-1 -99.5v-57q0 -16 -9 -22.5t-22 -8.5q-12 0 -37.5 -2t-53 -2t-51 1t-32.5 5q-4 2 -5 8t-1 13z" />
<glyph unicode="&#x43b;" horiz-adv-x="894" d="M-76 86q4 16 26.5 105.5t55.5 216.5t70 271t68.5 269t54 211t26.5 98q4 10 13.5 20.5t19.5 12.5t31.5 3t45 2t44 1h29.5q6 0 13 -5t9 -9q6 -16 21.5 -72.5t38 -138.5t49 -180t54.5 -200.5t54.5 -200t47 -176t34.5 -131t16 -62.5q4 -16 6.5 -35.5t4.5 -36.5q0 -4 -5.5 -9 t-9.5 -9q-25 -10 -49 -19.5t-51 -15.5q-39 -10 -65.5 7t-36.5 58q-6 20 -18.5 70.5t-30 115t-36 136.5t-36 137.5t-31.5 117.5t-20 77q-8 29 -14.5 57.5t-14.5 58.5q-4 20 -9 14.5t-10.5 -24t-10.5 -41.5t-7 -35q-4 -18 -16.5 -68t-29.5 -115.5t-35.5 -139.5t-36 -141.5 t-32 -122t-20.5 -80.5q-6 -29 -11 -44.5t-14.5 -22.5t-24.5 -7h-46q-25 0 -46.5 4t-41.5 21q-33 23 -23 57z" />
<glyph unicode="&#x43c;" horiz-adv-x="1214" d="M-18 82q2 16 10 102t18 209t21.5 265.5t21.5 268.5t17.5 219t9.5 120q0 29 29 28h48.5h55.5h45.5h22.5q2 0 17 -40t37.5 -101t47.5 -133t46.5 -135.5t36.5 -109.5t17 -52q6 -23 12.5 -27t14.5 19q4 12 24.5 75.5t48 149.5t57.5 180t52 166q2 8 19 17q8 4 14 6h176l12 -4 q4 -4 9.5 -7.5t5.5 -11.5q4 -31 11 -102.5t16.5 -165.5t20.5 -205t22.5 -221.5t21.5 -214t18.5 -183t12.5 -130t4 -52.5q0 -6 -15.5 -11t-37 -9t-45 -7t-39.5 -5q-41 -4 -54.5 9t-17.5 54q-2 23 -8.5 75t-14.5 119.5t-18 143.5t-19.5 147.5t-17.5 130t-14 93.5 q-4 18 -9.5 15t-9.5 -17q-12 -41 -34.5 -115t-45 -147.5t-40 -131t-19.5 -65.5q-4 -6 -8 -13.5t-8 -9.5q-37 -10 -62.5 -11t-64.5 5q-23 4 -33 17.5t-19 33.5q-35 106 -74.5 212t-74.5 210l-2 7q-2 6 -4 8t-5 -4.5t-3 -26.5q-2 -20 -5.5 -72.5t-8.5 -120t-11 -143.5 t-11 -145.5t-10.5 -125t-7.5 -83.5q-4 -25 -26 -25q-29 -2 -59.5 -4t-59.5 0q-29 4 -47.5 21.5t-9.5 60.5z" />
<glyph unicode="&#x43d;" horiz-adv-x="927" d="M4 80v68.5v135.5v181v204.5v205v182.5v137v70v14t6 14q2 2 30 3t60.5 1t62.5 -1t40 -1q4 -2 11 -6t7 -8q2 -29 3 -90.5t1 -128t-1 -127t-1 -86.5q-4 -27 21 -25q59 4 112.5 1t112.5 1q2 0 14 4q0 14 1 70.5t2 124.5t2 134.5t1 105.5q0 29 31 28q41 2 90 1t90 3 q16 2 24.5 -4t6.5 -26q-2 -27 -3 -92.5t-2 -153.5t-1 -192.5t-1 -210t-2 -206t-1 -179t-1 -130t-1 -59.5q-4 -29 -12.5 -39t-36.5 -14q-33 -4 -73 -5t-73 -1q-23 0 -34 17t-9 46q2 25 2 95.5v154.5v166t2 125q0 12 -4 18t-20 8h-107.5t-107.5 2q-25 0 -25 -26 q-2 -111 -3 -220.5t-3 -219.5q0 -16 1 -39t0 -43.5t-5 -36t-14 -15.5q-6 0 -24.5 -1t-42.5 -1h-47.5t-41.5 2q-31 4 -33 18.5t-4 45.5z" />
<glyph unicode="&#x43e;" horiz-adv-x="894" d="M-13 831.5q-1 67.5 0 117t3 61.5q8 37 25.5 95t57.5 113.5t112.5 94.5t193.5 39q100 0 162.5 -42t97.5 -97.5t46 -112t11 -84.5q0 -23 1 -78t1 -126t1 -150.5t1 -150.5v-126v-78q0 -35 -19 -95t-62.5 -119.5t-111 -102.5t-163.5 -43q-90 0 -150.5 25.5t-99.5 66.5 t-59.5 89t-29.5 93t-10 82t-1 51t-1 65.5t-2 121t-2 146.5t-2 144.5zM209 336q0 -61 25.5 -92t84.5 -43q25 -4 49.5 2t45 19.5t35 33.5t16.5 43t4 79t4 128t3 149.5t1 143t-1 112t-1 52.5q-4 35 -12 67.5t-33 61.5q-20 25 -46 35t-51.5 6.5t-48 -17.5t-36.5 -41 q-29 -51 -35 -106q-2 -14 -3 -55.5t-1 -98.5v-124.5v-133v-124v-97.5z" />
<glyph unicode="&#x43f;" horiz-adv-x="880" d="M14 55v92t1 196t2 252t1 259t-1 217t-1 127q0 6 -1 20.5t1 30t8.5 26.5t22.5 11q8 0 54 1t110.5 1t138.5 1t138.5 2t110.5 1h56q12 -2 16.5 -22.5t4.5 -24.5q0 -14 -1 -68.5t-1 -134v-179v-203v-205t-1 -187.5t-1 -147.5v-85.5q0 -37 -12.5 -48.5t-49.5 -6.5h-55.5 t-54.5 2q-29 4 -39 15t-10 40v86v173v218v223.5t1 189t1 115.5q0 31 -27 31q-43 -4 -93 -1t-93 -1q-4 0 -10.5 -9t-6.5 -15v-94.5v-187t-1 -231t-1 -229t-1 -180.5t-1 -82q-2 -6 -6 -13t-10 -12q-72 -27 -150 -14q-39 6 -39 51z" />
<glyph unicode="&#x440;" d="M6 1262q0 25 25 30q27 8 80 10.5t110.5 0t105.5 -4.5t64 -4q57 -4 111.5 -26.5t96.5 -59.5t69.5 -87t33.5 -109q4 -39 4.5 -96.5t0.5 -94.5q0 -55 -16.5 -110.5t-49.5 -103.5t-79 -88t-107 -64q-33 -12 -87.5 -17.5t-107.5 -9.5q-18 -2 -23.5 -9t-5.5 -24q4 -86 1 -171 t-1 -171q0 -59 -63 -51q-23 4 -51.5 2t-50.5 -2q-55 2 -56 53q0 45 -1 147.5t-1 230.5v266.5v257t-1 202.5t-1 103zM227 1047q2 -35 3 -92.5t1 -114v-101.5v-55q0 -4 5.5 -11t9.5 -9q8 -4 35.5 -7.5t61.5 2t67.5 21.5t56.5 51q27 43 33 90t6 97q0 23 -12.5 49t-31 48.5 t-43 39t-50.5 20.5q-29 4 -61 4h-50q-31 0 -31 -32z" />
<glyph unicode="&#x441;" horiz-adv-x="874" d="M8 346v645q0 37 9.5 99.5t42 123t97 105.5t177.5 45q92 0 152.5 -27.5t96 -68.5t52 -90.5t22 -92.5t4 -72.5t-1.5 -33.5q0 -12 -4 -28.5t-47 -16.5q-14 0 -46 -1t-46 -1q-39 0 -46 9t-13 32q-4 8 -5 39.5t-10.5 66.5t-28 61.5t-55.5 26.5q-47 0 -74.5 -22.5t-42 -53 t-17.5 -61.5t-3 -49q0 -20 -1 -68.5t-1 -111v-132v-130v-105.5v-59q0 -121 31 -166t90 -45q49 0 76.5 36t40 84t13.5 98t1 79q0 16 -1 30.5t3 30.5q0 6 7 14.5t16 8.5q35 4 78.5 3t78.5 -1q6 0 13.5 -7.5t7.5 -13.5q8 -45 7 -90t1 -90q0 -39 -15.5 -105.5t-53.5 -131 t-102.5 -111.5t-158.5 -47q-66 0 -127 21.5t-109 69.5t-78 123t-30 181z" />
<glyph unicode="&#x442;" horiz-adv-x="831" d="M-57 1219.5q0 27.5 3 51t9 29.5q8 2 58 3.5t120 1.5t148.5 1t148.5 1t119 -1t57 -1q27 -2 36 -11.5t7 -36.5t0 -52t-2 -52q-8 -53 -67 -53q-41 2 -79 -1t-79 -3q-23 0 -21 -23v-110.5v-195.5v-236.5v-232.5v-183.5v-89.5q0 -23 -22 -23q-35 -2 -69 -1t-68 -1 q-47 -4 -47 45q-2 47 -3.5 139t-2.5 203t-1 225.5t-1 210t-1 155.5v60q0 18 -2 33q-2 12 -5 22.5t-9 10.5t-31.5 -1t-58.5 -1h-66.5h-54.5q-4 0 -9 9t-5 13q0 14 -1 41t-1 54.5z" />
<glyph unicode="&#x443;" horiz-adv-x="876" d="M-58 1208.5q3 10.5 38 34.5q25 16 48 30.5t46 31.5q33 20 59 -21q6 -10 24.5 -43t44 -78t54.5 -94t54.5 -90t42 -68.5t20.5 -27.5t24.5 48t45 112.5l49 129t36.5 95.5q20 43 62 30q37 -8 74.5 -16t74.5 -16q27 -4 15 -27q-6 -12 -38 -93t-78 -200t-100.5 -258 t-102.5 -266t-85 -224.5t-49 -131.5q-8 -31 -29 -60q-4 -4 -11 -7t-13 -3q-37 8 -75 14t-75 17q-16 4 -22 23.5t0 39.5q6 18 19.5 58t31.5 91.5t38.5 110t40 113.5t36 102t26.5 78q-10 16 -36.5 60.5t-60.5 101.5t-71 119.5t-68.5 115t-52 86t-20.5 35.5q-20 37 -17 47.5z " />
<glyph unicode="&#x444;" horiz-adv-x="1181" d="M-33 938q0 111 44 187.5t113 125.5t155 72t170 23q102 0 192 -12.5t163 -47.5t122 -100.5t71 -169.5q4 -23 6.5 -90.5t3.5 -147.5t1 -157.5v-120.5q0 -23 -13.5 -82.5t-49.5 -124t-99.5 -119.5t-163.5 -72q-16 -2 -30.5 -3t-30.5 -1q-27 0 -27 -22q2 -23 1 -52.5t1 -50.5 q2 -31 -29 -30q-41 2 -82 2t-82 2q-27 0 -26 26q0 29 -1 54.5t-3 56.5q0 4 -1 6t-1 4q-47 10 -90 19.5t-84 19.5q-47 12 -90.5 37t-73.5 61q-23 27 -35 67t-18 75q-4 18 -6.5 82.5t-3.5 147.5t-2 173t-1 162zM172 928q0 -12 1 -57.5t2 -102.5t3 -116.5t4 -102.5 q0 -27 1 -53.5t6.5 -51t18.5 -46t42 -40.5q29 -18 59.5 -30.5t67.5 -10.5q2 10 2 17.5v15.5q2 47 1 96.5t-1 96.5v283.5t-2 283.5q0 29 -27 23q-10 -2 -39.5 -11.5t-60.5 -32t-54.5 -61.5t-23.5 -100zM586 987.5q0 -67.5 1 -153.5t2 -176.5t2 -177t1 -154.5q86 -10 137 32 q18 14 27.5 28.5t15.5 32t9 40t7 53.5v49v101.5t-1 120t-1 104.5q0 37 -5 71.5t-17 65.5t-37 55.5t-65 40.5q-16 6 -38 14.5t-32 4.5q-4 0 -5 -42t-1 -109.5z" />
<glyph unicode="&#x445;" horiz-adv-x="1024" d="M-55 74.5q-2 19.5 10 42.5q6 10 27.5 52t50 98.5t62.5 121t64.5 121.5t54.5 101t32 61q10 16 12 28.5t-8 28.5q-23 39 -60.5 106.5t-75.5 134t-69 121t-39 66.5q-14 23 -7 38t24 26q14 10 32.5 24.5t36 27.5t33 23.5t25.5 10.5q8 0 35.5 -42t62.5 -102.5t73.5 -128 t69.5 -119.5q25 49 54.5 114t57 123t49 98t32.5 40q18 2 35.5 -8t35.5 -18t36 -17.5t36 -17.5q23 -10 28 -22.5t-5 -37.5q-12 -25 -43 -83t-66 -125.5t-68.5 -129t-52.5 -92.5q-10 -16 -10 -29.5t10 -29.5t36 -59t57.5 -98.5t65.5 -116t62.5 -110.5t48.5 -84l19 -34 q16 -27 23.5 -44t4.5 -31.5t-16.5 -27t-40.5 -28.5q-16 -10 -32.5 -21.5t-32.5 -21.5t-34.5 -5t-29.5 24q-10 16 -29.5 51t-45 79t-54 94t-54.5 95t-46.5 83t-30.5 56q-4 4 -6 7.5t-8 9.5q-10 -16 -40 -76t-68 -133.5t-74.5 -145t-59.5 -114.5q-12 -23 -29.5 -29t-54.5 4 q-47 16 -88 41q-16 10 -18 29.5z" />
<glyph unicode="&#x446;" horiz-adv-x="980" d="M4 1255q0 20 14.5 31.5t34.5 11.5q27 -2 64 -1t61 6q10 2 18.5 -3.5t12.5 -9.5q6 -8 10 -14l4 -991q-2 -23 0 -39q0 -14 3.5 -25.5t9.5 -11.5h33.5h60h64.5h48q29 0 29 29q-2 27 -2 99.5v167.5t-1 200.5t-1 199.5t-1 166t-1 98q0 27 -2 52.5t-4 52.5q0 25 20 24 q41 2 80 4.5t80 4.5q27 2 29 -23q0 -25 2 -106.5t4 -191t4 -233.5t3 -231.5t2 -184.5t1 -93q2 -31 31 -29q23 2 47 0t45 0q33 2 37 -33q4 -55 2 -110.5t2 -112.5q0 -10 1 -23.5t-2 -27.5t-10.5 -23.5t-23.5 -9.5q-33 0 -76 -2t-65 0q-39 6 -45 53v51q0 23 -25 25h-73 t-107.5 -1t-120.5 -1h-114.5t-89.5 1t-42 1q-23 6 -31 23.5t-12 40.5q0 10 -1 65t-2 138t-1 186.5t-1 211t-1 210v184.5t-1 135t-1 59z" />
<glyph unicode="&#x447;" horiz-adv-x="843" d="M8 1023q0 79 1 147.5t3 86.5q2 39 54 41q29 4 48 2t48 -2q16 2 31.5 -14t17.5 -35q4 -94 -1 -189t5 -190q4 -41 16.5 -80.5t51.5 -66.5q33 -20 69.5 -27.5t77.5 -9.5q2 0 3 44t1 110.5v144.5v144.5t1 112.5t3 50q4 6 37 8.5t72 2.5t69.5 -4.5t32.5 -12.5v-58v-141.5v-198 v-226v-228v-203v-152v-73.5q0 -6 -22.5 -8t-53 -1t-62.5 2t-52 1t-20.5 18.5t-0.5 42.5q0 27 1 83.5t1 117v112.5t-2 70q0 4 -9 11.5t-17 9.5q-43 8 -86 13t-84 16q-53 14 -94.5 34.5t-73.5 71.5q-27 43 -44.5 89t-19.5 97q0 20 -1 89t-1 148z" />
<glyph unicode="&#x448;" horiz-adv-x="1216" d="M6 61v128.5v225.5t1 270t1 265t1 209t1 101q2 37 64 36q18 0 53 -1t55 3q29 2 35 -26q2 -35 3 -120t2 -193.5t1 -226.5t1 -218t1 -169v-77q0 -23 21 -22q41 0 75.5 1t75.5 1q27 0 25 28q-2 47 -3 120t-2 154t-1 166v155.5v123v68.5q0 27 28 27h140q23 0 28.5 -8.5 t8.5 -34.5q0 -37 1 -101.5t1 -142.5t1 -160t2 -155.5t2 -132t3 -85.5q0 -6 7 -13t13 -9q31 -4 61.5 -1t63.5 -1q23 -2 23 24q0 25 -1 106t-1 189.5v229v224v174.5t2 81q0 8 7 17t13 9q23 0 51.5 1.5t55 1.5t47 -1.5t26.5 -7.5q2 -2 3.5 -54t2.5 -136t2 -192.5t1 -221v-222.5 v-198t-1 -144t-1 -65q-2 -23 -4.5 -35t-8.5 -18t-16 -7t-29 1q-10 0 -79.5 1t-170 1t-215 1t-214 1h-167h-71.5q-16 0 -20.5 13.5t-4.5 41.5z" />
<glyph unicode="&#x449;" horiz-adv-x="1280" d="M-2 1237q2 10 6 18q8 20 27 21q20 0 47.5 1t53.5 1t46.5 -2t26.5 -8q2 -4 3 -50.5t2 -120t0 -167.5t-2 -191.5t-1 -190.5v-166t1 -117t5 -44h25.5h46t53.5 1t49 1q4 0 9 9.5t5 15.5v81t-1 134t-1 164t-1 172t-2 155.5t-3 116.5q0 29 27 29q41 -2 80 -1t78 1q25 0 24 -23 q2 -39 3 -107.5t2 -151.5t2 -172t2 -169t1 -143.5t2 -93.5v-15q0 -6 2 -10h170q-2 270 -2 487q0 92 -1 183.5t-1 167v127v63.5q2 14 7.5 22.5t21.5 8.5q41 0 80 1t80 3q25 0 24 -25v-103.5v-184v-224v-222t1 -178.5t1 -93q0 -16 17 -25q8 -4 16 -6l70 -2q8 -2 16 -6 q14 -8 14 -21q0 -59 3.5 -114.5t1.5 -114.5q-2 -31 -8.5 -43t-34.5 -12h-131q-45 0 -46 33v63h-74.5t-155.5 1t-196.5 1h-196.5h-155.5h-73.5q-20 -2 -36.5 12.5t-16.5 36.5q0 16 -1 75.5t-2 146.5t-2 192.5t-1 212.5q-2 250 -6 559z" />
<glyph unicode="&#x44a;" horiz-adv-x="790" d="M-104 1102v147q0 25 3 37t11 16.5t21.5 3.5t33.5 -1h51h63h57.5t35.5 -2q8 0 16.5 -7.5t10.5 -15.5q8 -33 8 -78v-358q0 -4 2 -8q35 2 67.5 1t67.5 -3q80 -4 146.5 -66.5t103.5 -155t40 -200t-42 -199.5t-144.5 -152.5t-265.5 -60.5h-32.5h-44h-44h-30.5q-8 4 -18.5 19.5 t-10.5 50.5v83.5v175v223.5v226.5v186v102.5q2 18 -6 24.5t-25 6.5q-23 0 -49 -3t-26 7zM211 598q2 -37 2 -99.5v-124t1 -107.5t5 -50q10 -10 22.5 -9t20.5 1q51 0 88 30.5t56.5 78t21.5 101.5t-18.5 101t-63.5 78t-110 31q-29 0 -25 -31z" />
<glyph unicode="&#x44b;" horiz-adv-x="1130" d="M8 1068v134v53q0 23 8.5 34t30.5 14q39 4 67.5 0.5t67.5 1.5q14 0 23.5 -6.5t9.5 -24.5v-98.5v-128v-117.5v-66q-4 -29 27 -30q129 0 213 -61.5t123.5 -154t41 -201t-33.5 -200.5t-103.5 -153.5t-165.5 -61.5h-64.5t-80.5 -1t-75 -1t-44 2q-33 6 -39 39q0 8 -1 64.5 t-2 142.5t-1 194.5v219t-1 217t-1 189.5zM209 362.5q0 -45.5 1 -82t1 -51.5q0 -8 5 -16t9 -10q8 -2 42 1t71 23.5t65.5 65.5t28.5 131q0 88 -33.5 133t-73.5 63.5t-75 19.5t-37 1t-3 -26.5t-1 -67.5v-90v-94.5zM705 51q0 14 1 71.5t1 140.5t1 186.5t1 209v207t-1 181t-1 132 v60.5q-4 57 47 64h33.5h43h39h25.5q16 0 23.5 -14.5t7.5 -18.5v-104.5v-219.5v-277.5v-278.5t-1 -224t-1 -113q0 -53 -45 -59q-33 -4 -65 -2t-64 0q-23 0 -34 16.5t-11 42.5z" />
<glyph unicode="&#x44c;" horiz-adv-x="745" d="M4 641v215.5v192.5v145v74q0 35 29 37q8 0 26.5 1t39 3t39 3t28.5 1q14 0 27 -17q6 -8 10 -16v-412q14 -2 30 -2q14 -2 30 -2h32q51 0 89 -16.5t66.5 -43t48 -60t31.5 -68.5q29 -82 35 -187v-122q-6 -109 -45 -191q-16 -35 -41.5 -68.5t-63.5 -60.5t-88.5 -43t-115.5 -16 q-72 0 -106.5 1t-59.5 1t-31 20.5t-8 36.5v59.5v135.5t-1 186t-1 213zM195 228.5q0 -29.5 2 -31.5q6 -4 21 -3t28 1q6 0 28.5 7t47 30.5t44 69.5t19.5 124q0 72 -13.5 116t-33 67.5t-42 31.5t-38.5 8q-6 0 -16.5 1t-20.5 1q-25 0 -24 -22v-46v-83t-1 -99.5t-1 -97.5v-74.5z " />
<glyph unicode="&#x44d;" horiz-adv-x="864" d="M-70 193q0 8 18.5 26.5t44 42t54.5 48t51 42.5q10 10 19.5 5t17.5 -15q4 -6 14.5 -27.5t30 -45t50 -41t75.5 -17.5q57 0 88 50t44.5 113.5t15.5 121t2 73.5q-2 20 -10.5 25.5t-36.5 5.5q-14 0 -34 -1t-40 -1h-47q-6 0 -13 4q-4 4 -9 8t-5 15v32.5t-1 52t-1 52v35.5 q0 18 12 26q6 4 15 2l129 4q12 2 20 7q20 8 21 22q-2 14 -4 57t-16.5 88.5t-43.5 81t-84 35.5q-18 0 -40.5 -10t-44 -26.5t-40 -36t-26.5 -35.5q-8 -12 -20.5 -5t-18.5 17q-8 8 -22.5 27.5l-29 39t-27.5 37t-18 23.5q-23 29 0 55q63 68 147.5 104t162.5 38q82 0 145.5 -43 t108.5 -109t68.5 -144.5t23.5 -150.5q2 -82 2 -164v-164q2 -156 -31 -269.5t-87 -189t-127 -112.5t-150 -37q-80 0 -145.5 32t-111.5 73t-71 78t-25 45z" />
<glyph unicode="&#x44e;" horiz-adv-x="1173" d="M6 264v198.5v225.5t1 222.5t1 192.5t1 137t3 54q6 8 31 11.5t53.5 4.5t54 0t35.5 -3q8 -2 17.5 -6.5t9.5 -26.5q0 -8 -1 -39t-1 -74t-1 -91t0 -88t3 -66.5t6 -26.5q6 0 22.5 -1t37 -1h42t37.5 2q20 2 21 26q0 12 3 48t13.5 82.5t30.5 97.5t54 94t85 70.5t123 27.5 t124 -25.5t88 -64.5t57.5 -87t34 -93t17.5 -83t5 -54q0 -29 1 -76t1 -102.5v-115v-110.5q0 -139 -15.5 -235t-41 -158.5t-58.5 -97.5t-68.5 -51.5t-71.5 -19.5t-67 -3q-37 0 -75.5 5t-74.5 25.5t-68 63.5t-55.5 121t-37.5 194.5t-14 284.5q-2 4 -7.5 10.5t-9.5 6.5h-56.5 t-55.5 -4q-6 0 -13.5 -9.5t-7.5 -17.5q0 -45 1 -133t2 -183.5t1 -177.5v-114q0 -23 -9 -26t-19 -5q-10 -4 -35 -4t-49.5 1t-44 2t-21.5 1q-27 4 -31 10t-6 39q0 10 -1 68.5t-1 146.5zM582 399q0 -106 27.5 -158.5t90.5 -52.5q31 0 52.5 19.5t35 48.5t19.5 64.5t6 66.5v69.5 v112t-1 130t-1 126v99.5v49q0 12 -6 36.5t-18.5 51t-34 46t-52.5 19.5t-53 -16t-36.5 -41t-21.5 -52.5t-7 -51.5v-566z" />
<glyph unicode="&#x44f;" horiz-adv-x="940" d="M-14.5 64.5q-3.5 13.5 4.5 29.5q6 14 37.5 71.5t71.5 127t80 139.5t65 113q16 29 -11 39q-37 14 -76.5 33.5t-74.5 56.5t-57.5 97t-22.5 159q0 113 49 184.5t110.5 111.5t116 56t66.5 21q18 6 70.5 7t109 1t104.5 -2t58 -2q18 2 24.5 -6.5t6.5 -24.5q0 -18 1 -79.5 t1 -150v-196v-216v-212t1 -183t1 -130v-52.5q4 -49 -43 -55q-14 -2 -37 -2h-45.5t-40.5 2t-25 4q-23 8 -27.5 26.5t-4.5 39.5q0 43 1 116.5t3 146.5t3 131t1 73v14t-4 10q-12 0 -19.5 -12t-11.5 -23q-10 -18 -35.5 -62t-56.5 -98.5t-64.5 -113.5t-61.5 -108.5t-47.5 -82 t-19.5 -34.5q-33 -59 -90 -27q-16 10 -40.5 23.5t-43.5 19.5q-23 6 -26.5 19.5zM227 934q0 -55 19.5 -89t46 -53.5t54.5 -26.5t44 -7h80q35 0 35 35q0 20 1 63t1 89t-1 88.5t-1 60.5q0 12 -19.5 13t-50.5 1q-16 0 -50 -4t-69.5 -21.5t-62.5 -52.5t-27 -96z" />
<glyph unicode="&#x451;" horiz-adv-x="806" d="M4 1282q0 33 29 33h577q8 0 9.5 -30t-4 -64.5t-14.5 -66.5t-19 -34q-16 -4 -64.5 -5t-102 -2t-100.5 0t-59 1q-23 2 -32 -7t-7 -34q0 -55 1 -111.5t1 -111.5q0 -29 29 -29q14 2 47 2h69.5t68.5 -1t46 -1q25 0 30 -18.5t5 -32.5q2 -29 -1 -51.5t-7 -50.5 q-2 -8 -10.5 -17.5t-16.5 -11.5q-33 -6 -69.5 -8t-72.5 -3t-66 0t-48 1q-2 -8 -2 -55.5t1 -109t2 -126t3 -105.5q0 -29 31 -28h330q18 0 27.5 -20.5t9.5 -43.5q2 -23 0 -44t-2 -44q0 -43 -48 -49q-18 -2 -60 -3t-95 -2t-111.5 -1t-111 1t-91 2t-53.5 3q-37 4 -37 43 q0 25 -1 125t-2 236.5t-3 288t-3 280.5t-2 215t-1 90zM72 1516q-2 39 6 49t51 12q27 0 53.5 -1t53.5 1q23 2 28.5 -4t5.5 -27q2 -29 3 -54.5t3 -53.5q0 -20 -10 -41q-4 -6 -12 -12.5t-16 -6.5q-31 0 -63 -2t-62 2q-35 4 -37 37q-2 23 -3 48.5t-1 52.5zM349 1473.5 q-3 31.5 1 62.5q4 35 37 37q23 2 52.5 3t56.5 3q39 0 46 -7t9 -50q0 -29 -2 -54.5t2 -54.5q2 -20 -4 -26.5t-27 -8.5q-29 0 -54.5 -2t-53.5 -2q-27 0 -41 10q-6 4 -12.5 11.5t-6.5 15.5q0 31 -3 62.5z" />
<glyph unicode="&#x2000;" horiz-adv-x="789" />
<glyph unicode="&#x2001;" horiz-adv-x="1579" />
<glyph unicode="&#x2002;" horiz-adv-x="789" />
<glyph unicode="&#x2003;" horiz-adv-x="1579" />
<glyph unicode="&#x2004;" horiz-adv-x="526" />
<glyph unicode="&#x2005;" horiz-adv-x="394" />
<glyph unicode="&#x2006;" horiz-adv-x="263" />
<glyph unicode="&#x2007;" horiz-adv-x="263" />
<glyph unicode="&#x2008;" horiz-adv-x="197" />
<glyph unicode="&#x2009;" horiz-adv-x="315" />
<glyph unicode="&#x200a;" horiz-adv-x="87" />
<glyph unicode="&#x2010;" horiz-adv-x="468" d="M-78 592v28.5t1 44t1 44v30.5q0 27 25 27h303q16 0 29.5 -10.5t9.5 -38.5q0 -8 -1 -25.5t-2 -36t-2 -36t-3 -23.5q-6 -33 -47 -33q-12 0 -56.5 1t-93.5 1h-89h-46q-10 0 -19.5 6.5t-9.5 20.5z" />
<glyph unicode="&#x2011;" horiz-adv-x="468" d="M-78 592v28.5t1 44t1 44v30.5q0 27 25 27h303q16 0 29.5 -10.5t9.5 -38.5q0 -8 -1 -25.5t-2 -36t-2 -36t-3 -23.5q-6 -33 -47 -33q-12 0 -56.5 1t-93.5 1h-89h-46q-10 0 -19.5 6.5t-9.5 20.5z" />
<glyph unicode="&#x2012;" horiz-adv-x="468" d="M-78 592v28.5t1 44t1 44v30.5q0 27 25 27h303q16 0 29.5 -10.5t9.5 -38.5q0 -8 -1 -25.5t-2 -36t-2 -36t-3 -23.5q-6 -33 -47 -33q-12 0 -56.5 1t-93.5 1h-89h-46q-10 0 -19.5 6.5t-9.5 20.5z" />
<glyph unicode="&#x2013;" horiz-adv-x="638" d="M0 596q2 37 1 75t-1 52q0 23 8 30t31 7h373q14 2 22 -2t14.5 -10.5t6.5 -22.5q-2 -29 0 -63.5t-2 -63.5q-4 -39 -45 -39q-94 -2 -181.5 -2t-185.5 2q-41 -4 -41 37z" />
<glyph unicode="&#x2014;" horiz-adv-x="790" d="M0 600v148q0 10 6 16t25 6h50h106.5h136h136h106.5h50q23 -2 19 -29v-28.5v-40v-40v-28.5q0 -20 -5 -29.5t-30 -9.5h-78.5h-152.5t-176.5 -1t-149.5 -1q-29 0 -36 3t-7 34z" />
<glyph unicode="&#x2018;" horiz-adv-x="1705" />
<glyph unicode="&#x2019;" horiz-adv-x="1705" />
<glyph unicode="&#x201c;" horiz-adv-x="995" d="M-25.5 566.5q1.5 9.5 13.5 21.5q2 2 21.5 25.5t49 56t64.5 72.5t66.5 78t58 68t41.5 44q18 20 43 2q25 -20 49.5 -40t50.5 -38q23 -16 24 -28.5t-18 -32.5q-18 -18 -43.5 -47t-53.5 -59t-52.5 -56.5t-40.5 -42.5q-12 -14 -9 -21.5t7 -11.5q57 -68 116 -129l111 -117 q25 -29 23 -44t-31 -38q-16 -14 -32.5 -26.5t-31.5 -28.5q-23 -23 -44 -19.5t-38 21.5q-35 39 -70.5 78t-70.5 78q-18 20 -48 51t-59.5 61.5t-51 54t-25.5 27.5q-2 2 -8 8.5t-9.5 14.5t-2 17.5zM368 574.5q-1 13.5 29 46.5q10 8 34 32.5t54.5 56t63.5 65.5t61.5 62.5t47 48 t20.5 21.5q6 6 12 6t8 -2q14 -10 33 -24.5t37 -27.5t32.5 -24.5t18.5 -13.5q18 -12 20.5 -21t-14.5 -26q-18 -18 -41.5 -42.5t-48 -51.5t-48 -51.5t-42.5 -42.5q-4 -4 -15 -14.5t5 -26.5q8 -8 39 -42t67.5 -74t67.5 -76t39 -46q25 -39 -19 -65q-20 -12 -36.5 -27.5 t-34.5 -30.5q-45 -33 -80 11q-23 27 -70 83t-96 113.5t-88 102.5t-45 53q-10 14 -11 27.5z" />
<glyph unicode="&#x201d;" horiz-adv-x="940" d="M18 295q41 53 87.5 108.5t87.5 104.5q16 20 2 41q-37 51 -74 101t-72 102q-18 18 -13 26.5t9 12.5q35 27 65.5 51t63.5 47q16 16 33 -4q23 -31 61.5 -84t77.5 -104.5t68.5 -90.5t31.5 -41q6 -4 11.5 -14t-4.5 -21q-10 -12 -44 -58t-76 -103.5t-82 -110.5t-61 -80 q-27 -31 -40 -31t-44 29q-16 16 -38.5 33.5t-40.5 34.5q-31 23 -9 51zM350.5 216q-4.5 20 7.5 36q23 35 57 81t64.5 87t52.5 70l23 28q12 16 17.5 25.5t5.5 17.5t-5.5 17.5t-15.5 25.5t-32.5 45t-46 58.5t-44 55t-26.5 36.5q-10 14 -6 23t8 14q2 2 16 13t33.5 24.5t40 27.5 t32.5 23q27 16 46 -9q8 -14 41.5 -59t70.5 -95t66.5 -92t34.5 -51q4 -10 14 -24t10 -25q0 -12 -6 -25.5t-16 -27.5q-23 -31 -61 -87t-78 -115.5t-73.5 -108.5t-45.5 -64q-20 -29 -36 -28.5t-44 20.5q-43 31 -84 53q-16 10 -20.5 30z" />
<glyph unicode="&#x201e;" />
<glyph unicode="&#x202f;" horiz-adv-x="315" />
<glyph unicode="&#x205f;" horiz-adv-x="394" />
<glyph unicode="&#x25fc;" horiz-adv-x="1300" d="M0 0v1300h1300v-1300h-1300z" />
</font>
</defs>
</svg>
